<?xml version="1.0" encoding="utf-8"?>
<!-- Generator: Adobe Illustrator 21.0.2, SVG Export Plug-In . SVG Version: 6.00 Build 0)  -->
<svg version="1.1" id="Layer_1" xmlns="http://www.w3.org/2000/svg" xmlns:xlink="http://www.w3.org/1999/xlink" x="0px" y="0px"
	 viewBox="0 0 607.9 523.8" style="enable-background:new 0 0 607.9 523.8;" xml:space="preserve">
<style type="text/css">
	.st0{fill:#39B54A;}
	.st1{fill:#FDF16E;}
	.st2{fill:#FDF16E;stroke:#39B54A;stroke-width:14;stroke-miterlimit:10;}
	.st3{fill:none;stroke:#39B54A;stroke-width:14;stroke-miterlimit:10;}
</style>
<g>
	<path class="st0" d="M560.5,254.5c-0.1,15.3-1.9,30.6-5.4,45.5c-3.5,15-8.6,29.6-15.2,43.7c-3.3,7.1-7,14-11,20.7
		c-0.9,1.7-2,3.4-3.1,5l-3.2,5c-0.5,0.8-1.1,1.6-1.7,2.4l-1.7,2.4l-3.5,4.8c-9.5,12.7-20.4,24.5-32.4,35.1
		c-24,21.3-52.7,37.6-83.3,47.6c-30.7,10.1-63.1,14.3-95.1,12.9c-32-1.5-63.5-8.7-92.9-20.1c-29.4-11.5-56.8-27.1-81.3-46.1
		c-12.3-9.5-23.8-20-34.3-31.5c-10.5-11.5-20-23.9-28.1-37.4l-3-5.1c-0.5-0.8-1-1.7-1.4-2.6l-1.4-2.6l-2.8-5.2
		c-0.9-1.8-1.7-3.6-2.5-5.4c-0.8-1.8-1.7-3.6-2.5-5.4l-2.2-5.5c-1.6-3.7-2.7-7.4-4-11.2c-5-15.1-8.2-31-9.2-47.2
		c-1-16.2,0.1-32.6,3.5-48.8l1.3-6l0.3-1.5l0.4-1.5l0.8-3l1.7-6c0.6-2,1.3-3.9,2-5.9c0.7-1.9,1.4-3.9,2.1-5.8l2.4-5.7l1.2-2.9
		c0.4-1,0.8-1.9,1.3-2.8l2.8-5.6c3.7-7.4,7.9-14.5,12.6-21.4c1.1-1.8,2.3-3.4,3.5-5.1l3.7-5c0.6-0.8,1.2-1.6,1.9-2.4l2-2.4l3.9-4.8
		c10.7-12.5,22.8-23.8,35.8-33.9c13-10.1,26.8-18.9,41.3-26.5c14.5-7.6,29.6-14,45.1-19c31-10.1,63.7-15,96.1-14.7l12.2,0.4
		c2,0,4.1,0.3,6.1,0.4l6.1,0.5c2,0.2,4,0.3,6.1,0.6l6,0.7c2,0.3,4,0.5,6,0.8l6,1c16,2.7,31.8,6.6,47.1,12
		c15.3,5.4,30.1,12.2,44.1,20.4c3.5,2.1,6.9,4.3,10.3,6.4c3.4,2.3,6.7,4.6,10,6.9c3.2,2.4,6.4,4.9,9.6,7.4c3.1,2.6,6.1,5.2,9.2,7.8
		c12,10.7,22.8,22.6,32.3,35.3l3.5,4.8l1.7,2.4c0.6,0.8,1.1,1.6,1.7,2.4l3.2,5c1.1,1.7,2.2,3.3,3.1,5c4.1,6.8,7.8,13.7,11,20.7
		c6.6,14.1,11.7,28.8,15.2,43.8C558.8,224,560.5,239.3,560.5,254.5z M556,254.5c-0.1-14.9-2.4-29.8-6.9-43.9
		c-4.5-14.1-11.1-27.5-19.3-39.6c-1.9-3.1-4.3-5.9-6.5-8.9l-1.7-2.2l-1.8-2.1l-3.6-4.1c-1.2-1.4-2.5-2.7-3.7-4l-3.8-3.9
		c-0.6-0.7-1.3-1.3-1.9-1.9l-2-1.9l-4-3.7c-10.8-9.6-22.6-17.9-34.9-25.1c-24.6-14.4-51.2-24.4-78.2-31.3
		c-13.5-3.4-27.2-6.1-41.1-7.7l-5.2-0.6c-1.7-0.2-3.5-0.3-5.2-0.4c-3.5-0.2-6.9-0.7-10.4-0.7l-5.2-0.2c-1.7-0.1-3.5-0.2-5.2-0.2
		l-10.5-0.1c-27.9,0.4-55.6,4.2-82.3,11.7c-26.7,7.5-52.3,19-75,34.7c-22.7,15.6-42.2,35.6-57,58.5c-7.4,11.5-13.5,23.8-18.1,36.8
		c-4.6,13-7.5,26.7-8.6,40.7c-1,14-0.1,28.3,2.9,42.2l1.2,5.2l0.3,1.3l0.4,1.3l0.8,2.6l1.5,5.2c0.6,1.7,1.2,3.4,1.8,5.1
		c0.6,1.7,1.2,3.4,1.9,5.1l2.2,5l1.1,2.5c0.4,0.8,0.7,1.7,1.1,2.5l2.5,4.8c13.5,25.7,33.8,47.9,57.9,64.6c12,8.4,25,15.4,38.4,21
		c13.5,5.7,27.4,10,41.6,13c28.3,6.2,57.2,7.6,85.6,6.3c28.4-1.6,56.3-5.9,83.4-13.5c27-7.6,53.4-18.1,78-32.6
		c12.3-7.2,24.1-15.6,34.9-25.3l4-3.7l2-1.9c0.7-0.6,1.3-1.2,1.9-1.9l3.8-3.9c1.3-1.3,2.6-2.6,3.7-4l3.6-4.2l1.8-2.1l1.7-2.2
		c2.2-2.9,4.5-5.8,6.5-8.9c8.2-12.1,14.8-25.5,19.3-39.7C553.7,284.3,556,269.4,556,254.5z"/>
</g>
<g>
	<g>
		<path class="st1" d="M168.4,403.9c0,0-111.2-270.3,190.8-342.5C359.2,61.4,484.1,321.9,168.4,403.9z"/>
		<path class="st0" d="M168.1,404.5c-0.2-0.1-0.4-0.4-0.4-0.6l-0.1-0.2l-0.2-0.4l-0.4-0.8l-0.7-1.6l-1.4-3.3
			c-0.9-2.2-1.8-4.4-2.7-6.6c-1.7-4.5-3.3-9-4.8-13.5c-2.9-9.1-5.5-18.3-7.5-27.7c-4.2-18.7-6.6-37.9-6.9-57.2
			c-0.3-19.3,1.5-38.8,5.8-57.8c2.2-9.5,4.9-18.9,8.5-28c3.5-9.1,7.8-17.9,12.7-26.4l1.8-3.2c0.6-1,1.3-2.1,2-3.1
			c1.3-2,2.6-4.1,4-6.1c1.4-2,2.8-4,4.2-5.9l4.5-5.8c6.2-7.5,12.8-14.6,19.9-21.2l5.4-4.8c1.8-1.6,3.7-3.1,5.5-4.7
			c0.9-0.8,1.8-1.6,2.8-2.3l2.9-2.2c1.9-1.4,3.8-3,5.7-4.3c2-1.4,3.9-2.8,5.9-4.2c1-0.7,2-1.4,3-2l3-2c3.9-2.7,8.1-5.1,12.2-7.6
			c33-19.4,68.9-33.1,105.7-43.3l2.9-0.8l1.4,2.8c2.3,4.5,4.2,8.9,6,13.4c1.9,4.5,3.6,9,5.2,13.6c3.3,9.1,6.1,18.5,8.4,27.9
			c2.4,9.4,4.2,19,5.5,28.7c1.4,9.7,2.1,19.4,2.4,29.2c0.3,9.8,0,19.6-0.9,29.4c-0.9,9.8-2.5,19.6-4.8,29.2
			c-4.4,19.3-11.9,37.9-22,55c-5.1,8.5-10.8,16.7-17.1,24.3c-6.3,7.6-13,14.9-20.4,21.5c-7.3,6.6-14.9,12.9-22.9,18.5l-3,2.1
			c-1,0.7-2,1.3-3.1,2l-6.1,4c-2.1,1.3-4.2,2.5-6.3,3.8l-3.1,1.9c-1,0.6-2.1,1.2-3.2,1.8l-6.4,3.5c-2.1,1.2-4.3,2.2-6.5,3.3
			c-2.2,1.1-4.3,2.2-6.5,3.2l-6.6,3l-3.3,1.5l-3.4,1.4l-6.7,2.7c-4.5,1.8-9.1,3.3-13.6,5c-4.6,1.5-9.1,3-13.7,4.5
			c-4.6,1.3-9.2,2.7-13.9,4c-4.7,1.2-9.3,2.3-14,3.5C177.6,402.7,172.7,403.6,168.1,404.5z M168.7,403.3c4.6-1.6,8.9-3.3,13.1-4.7
			l13.4-4.9c4.5-1.7,8.9-3.5,13.3-5.2l13.1-5.5c4.3-2,8.6-3.9,12.9-6l6.4-3.1l3.2-1.6l3.1-1.7l6.2-3.3c2.1-1.1,4.1-2.3,6.1-3.5
			l3.1-1.8c1-0.6,2.1-1.1,3-1.8l6-3.7c1-0.6,2-1.2,3-1.9l2.9-2c1.9-1.3,3.9-2.6,5.8-3.9c3.8-2.8,7.6-5.4,11.2-8.4
			c7.4-5.6,14.4-11.9,21-18.3c6.6-6.5,12.8-13.4,18.4-20.7c5.7-7.3,10.9-14.8,15.5-22.8c9.2-15.9,16.1-33,20.8-50.9
			c2.3-8.9,4-18,5-27.2c1.1-9.2,1.6-18.5,1.6-27.8c0-18.6-2-37.3-5.6-55.7c-0.9-4.6-1.9-9.2-3-13.8c-1.1-4.6-2.2-9.1-3.5-13.7
			c-1.3-4.5-2.7-9-4.2-13.5c-1.5-4.4-3.1-8.9-4.9-13.1l4.3,2l-13.8,3c-4.6,1.1-9.1,2.3-13.7,3.5l-6.8,2c-2.3,0.7-4.5,1.3-6.8,2
			l-6.7,2.3c-2.2,0.8-4.5,1.5-6.7,2.4c-4.4,1.7-8.8,3.3-13.1,5.2l-6.5,2.8c-2.1,1-4.3,2-6.4,3c-4.3,1.9-8.4,4.3-12.6,6.4
			c-2.1,1.1-4.1,2.3-6.1,3.5c-2,1.2-4.1,2.4-6,3.6c-7.9,5.1-15.6,10.5-22.8,16.5c-7.1,6.1-14.1,12.4-20.3,19.3
			c-6.3,6.9-12.1,14.1-17.4,21.7c-5.3,7.6-10,15.5-14.3,23.7c-4.2,8.2-8,16.6-11.2,25.2c-3.2,8.6-5.9,17.4-8.1,26.4
			c-4.3,17.9-6.5,36.4-7,55c-0.2,9.3-0.1,18.6,0.5,27.9c0.3,4.7,0.7,9.3,1.1,14c0.4,4.7,1,9.3,1.6,14c0.6,4.6,1.4,9.3,2.2,13.9
			c0.8,4.6,1.7,9.3,2.7,13.9c1,4.6,2,9.2,3.2,13.8c0.6,2.3,1.2,4.6,1.8,6.9l1,3.4l0.5,1.7l0.3,0.8l0.1,0.4l0.1,0.2
			C168.9,403.4,168.8,403.3,168.7,403.3z"/>
	</g>
	<path class="st2" d="M348.9,69.4c0,0-83.9,263.6-200.5,344.7"/>
	<g>
		<line class="st1" x1="297" y1="185.9" x2="381.2" y2="163.6"/>
		<g>
			<g>
				<g>
					<path class="st0" d="M381.1,163.7c0,0,0.1,0,0.1,0C381,163.7,381.2,163.7,381.1,163.7z"/>
					<polygon class="st0" points="379.1,164.1 379.1,164 378.8,164.1 					"/>
					<path class="st0" d="M377.1,164.4c0.2,0.1,0.7-0.2,1.1-0.2l0.1,0l0.1-0.1C377.9,164.2,377.4,164.4,377.1,164.4z"/>
					<path class="st0" d="M376,164.3c0.1,0.1-0.2,0.1,0.3,0c0,0,0,0,0,0C376.1,164.3,376.1,164.3,376,164.3z"/>
					<path class="st0" d="M376.2,164.3C376.4,164.2,376,164.2,376.2,164.3L376.2,164.3z"/>
					<path class="st0" d="M375.2,164.4l0.3-0.1c-0.1,0-0.3,0-0.2-0.1C375,164.3,375,164.4,375.2,164.4z"/>
					<path class="st0" d="M375,164.6l0.1-0.1C375.1,164.5,375.1,164.5,375,164.6z"/>
					<path class="st0" d="M375.4,164.4l-0.3,0.1c0,0,0.1,0.1,0.1,0C375.2,164.6,375.3,164.5,375.4,164.4z"/>
					<path class="st0" d="M375.6,164.4c0.2,0,0.4,0,0.1,0.1C376.2,164.4,376.1,164.3,375.6,164.4z"/>
					<path class="st0" d="M377,164.6l0.2,0l0.2-0.1C377.3,164.5,377,164.6,377,164.6z"/>
					<path class="st0" d="M373.5,164.5c0,0.1,0.1,0.1,0.2,0.2l0.2-0.1C373.7,164.6,373.5,164.6,373.5,164.5z"/>
					<path class="st0" d="M373.6,164.7l-0.3,0.1C373.6,164.8,373.7,164.8,373.6,164.7z"/>
					<polygon class="st0" points="375,164.8 375.5,164.6 374.9,164.8 					"/>
					<polygon class="st0" points="372.3,164.6 372.4,164.5 372.2,164.7 					"/>
					<path class="st0" d="M371.5,164.7c0.1-0.1-0.2-0.2-0.1-0.3c-0.2,0-0.4,0.2-0.5,0.3C371.1,164.7,371.3,164.7,371.5,164.7z"/>
					<path class="st0" d="M370.7,164.9c0.1,0,0.2-0.1,0.2-0.2C370.8,164.8,370.8,164.8,370.7,164.9z"/>
					<path class="st0" d="M372.8,164.9c0,0-0.1-0.1-0.3-0.1l0.2,0.1C372.7,164.9,372.8,164.9,372.8,164.9z"/>
					<path class="st0" d="M372.7,164.9L372.7,164.9c-0.1,0-0.2,0-0.3,0C372.5,164.9,372.6,164.9,372.7,164.9z"/>
					<path class="st0" d="M372.9,164.9L372.9,164.9C372.8,164.9,372.9,164.9,372.9,164.9z"/>
					<path class="st0" d="M374.2,164.9c-0.2,0.1-0.5,0.3-0.1,0.3C374.2,165,373.9,165,374.2,164.9z"/>
					<path class="st0" d="M373.1,165.1l0.3,0c0,0-0.1-0.1,0-0.1L373.1,165.1z"/>
					<polygon class="st0" points="372.9,165.1 373.1,165.1 372.9,165.1 					"/>
					<path class="st0" d="M371.3,165c-0.1,0.1-0.3,0.1-0.4,0.2c0.2,0,0.4,0,0.6,0C371.4,165.1,371.5,165,371.3,165z"/>
					<path class="st0" d="M372,165L372,165C372,165,372,165,372,165z"/>
					<polygon class="st0" points="369.2,165.5 369.2,165.5 369.2,165.5 					"/>
					<path class="st0" d="M371.5,165.2c0.1,0,0.2,0,0.3-0.1C371.6,165.1,371.5,165.2,371.5,165.2
						C371.4,165.2,371.4,165.2,371.5,165.2z"/>
					<path class="st0" d="M370.2,165.1c0.1,0,0.2,0.1,0.3,0.1C370.4,165.1,370.2,165,370.2,165.1z"/>
					<path class="st0" d="M371.9,165L371.9,165C371.9,164.9,371.9,164.9,371.9,165z"/>
					<path class="st0" d="M371.9,165c-0.1,0-0.1,0.1-0.2,0.1C371.8,165.1,371.9,165,371.9,165C371.9,165,371.9,165,371.9,165z"/>
					<path class="st0" d="M369.1,167.1c0-0.2,0.3-0.5,0.6-0.4c0.3-0.2-0.1-0.9-0.5-1.2c0,0.1,0,0.2-0.2,0.4c0.1,0.1,0.8,0.1,0.6,0.4
						c-0.4,0.2-0.4,0-0.6-0.1c0.2,0.2-0.4,0.5-0.2,0.9l0.3-0.2C369,166.9,368.9,167.1,369.1,167.1z"/>
					<path class="st0" d="M369.8,165.4l0.1,0c-0.2,0-0.3-0.1-0.5-0.2c-0.2,0.1-0.2,0.2-0.2,0.3L369.8,165.4L369.8,165.4z"/>
					<path class="st0" d="M370.5,165.3c0,0.2-0.3,0.4-0.1,0.6c0.4-0.1,0.2-0.2,0.4-0.4C370.3,165.7,371,165.4,370.5,165.3
						c0.1,0,0.2-0.1,0.3-0.1c-0.1,0-0.2,0-0.3,0l0,0l0,0l0,0C370.6,165.2,370.6,165.2,370.5,165.3L370.5,165.3
						C370.5,165.2,370.5,165.3,370.5,165.3C370.3,165.3,370.5,165.2,370.5,165.3c0-0.1,0-0.1,0-0.1l0,0l-0.6,0.2
						C370.1,165.4,370.2,165.4,370.5,165.3z"/>
					<path class="st0" d="M373.8,165.5C373.8,165.5,373.8,165.5,373.8,165.5C373.8,165.5,373.8,165.6,373.8,165.5z"/>
					<path class="st0" d="M373.6,165.5c0,0,0.1-0.1,0.2-0.1c0.1,0,0,0.1,0,0.1c0.1-0.1,0.3-0.2,0-0.2l0,0c-0.3,0-0.6-0.1-0.6-0.2
						C373.3,165.3,373.4,165.4,373.6,165.5z"/>
					<path class="st0" d="M372,165.5l-0.5,0.2l0.3,0.1l0-0.1C372.1,165.7,372,165.6,372,165.5z"/>
					<polygon class="st0" points="369.1,165.4 369.1,165.1 368.9,165.5 					"/>
					<polygon class="st0" points="368.4,165.5 368.4,165.3 368.2,165.4 					"/>
					<path class="st0" d="M333.4,182.1l-0.1,0.3C333.4,182.3,333.4,182.2,333.4,182.1z"/>
					<path class="st0" d="M334.4,181.7l-0.1-0.4C334.4,181.5,334.4,181.7,334.4,181.7z"/>
					<path class="st0" d="M351.9,167.9c-0.3-0.4-0.8-1.2-0.6-0.6l0.2,0.6C351.6,167.8,351.8,167.8,351.9,167.9z"/>
					<path class="st0" d="M341.8,174.3c0,0.1,0.1,0.1,0.1,0.2c0-0.3,0-0.5-0.1-0.8C341.9,173.9,341.9,174.1,341.8,174.3z"/>
					<path class="st0" d="M342.6,177.6l-0.4-0.4C342.2,177.3,342.4,177.5,342.6,177.6z"/>
					<path class="st0" d="M328,185.4l0.1,1.2C328.4,186.5,328.2,186,328,185.4z"/>
					<path class="st0" d="M361.6,166.6c-0.2-0.1-0.4-0.2-0.5-0.2C361.3,166.6,361.6,166.9,361.6,166.6z"/>
					<path class="st0" d="M331.1,171.6c0,0.2,0,0.4,0,0.6C331.1,172,331.1,171.8,331.1,171.6z"/>
					<path class="st0" d="M360.5,166.5c0,0,0.1,0.1,0.1,0.1c0.1-0.1,0.2-0.2,0.4-0.2C360.8,166.3,360.6,166.2,360.5,166.5z"/>
					<path class="st0" d="M307.3,192.5c0-0.1-0.1-0.1-0.1-0.2C307.2,192.5,307.3,192.5,307.3,192.5z"/>
					<path class="st0" d="M296.9,178.3c0-0.1,0.1-0.1,0.2-0.2C297.1,178,297,178,296.9,178.3z"/>
					<path class="st0" d="M365.7,165.7C365.8,165.7,365.7,165.7,365.7,165.7L365.7,165.7z"/>
					<path class="st0" d="M366.7,166.8c0,0,0,0.1,0,0.2C366.6,166.9,366.6,166.8,366.7,166.8z"/>
					<path class="st0" d="M359.7,169.4L359.7,169.4C359.8,169.5,359.8,169.5,359.7,169.4z"/>
					<path class="st0" d="M365.9,165.8c-0.1,0-0.1-0.1-0.2-0.1C365.7,165.8,365.8,165.8,365.9,165.8z"/>
					<path class="st0" d="M365.8,165.7c0.1,0,0.1,0,0.1,0C366,165.7,366,165.6,365.8,165.7z"/>
					<path class="st0" d="M365.5,165.8c0.1,0,0.2,0,0.2,0c0,0,0,0,0,0C365.6,165.8,365.6,165.8,365.5,165.8z"/>
					<path class="st0" d="M317.4,184.7c0,0,0-0.1-0.1-0.1C317.3,185.2,317.3,185.1,317.4,184.7z"/>
					<path class="st0" d="M349.9,175.1C350,175.1,350,175.1,349.9,175.1L349.9,175.1L349.9,175.1z"/>
					<path class="st0" d="M349.6,175.8c0-0.9,0.1-0.8,0.3-0.7l-0.7-1.8L349.6,175.8z"/>
					<path class="st0" d="M331,183.3l0.6,0.8c0,1.7-0.4,1.3,0.2,2.5c-0.8-3.2,1.2-0.9,0.4-4.1l0.4,0.6c-0.1,0,0,0.2-0.1,0.2
						c0.8,1.3-0.3-2.4,0.4-2.1c0.3,0.2,0.5,0.6,0.5,1l0.2-0.9c0.1,0,0.3,0.6,0.1,0.5l0.6-0.5l0,0.1c0-0.5,0-1.3,0-1.7
						c0.3,0.4,0,0.3,0.1,0.7l0.2-0.8c0.4,0.7,0.2,1.6,0,1.6c1.1,2.8,0.1-0.9,1.3,0.6l-0.2,0.5c0.7,1.6,0.8,0.9,1.4,1.7
						c-0.2-0.5-1.5-2.3-1.3-3.1c0.2,0.2,0.3,0.2,0.4-0.4c0.3,1,0.4,0.7,0.7,0.5l0.3,1.3c0.2-0.5,0-1.2,0-1.8c0.4,0,0.7,1,1,1.8
						c0.6,0-0.8-1.5-0.2-2c0.6,0.3,0.7-0.3,1-1.3c0.4,0.3,0.2,0.8,0.4,1.1l0-1.1c0.1,0,0.1,0.3,0.2,0.5c0.1-0.5-0.3-1.3-0.1-1.7
						c-0.3-1.4,1.2,1.7,1.3,0c0.2,0.3,0.1,0.8,0.3,1.2c0.3-1.2,0.3-0.9,0.5-2.4l0.6,0.6c-0.5-0.8-0.4-2-0.3-2.9
						c-0.2-0.4-0.4-0.7-0.5-0.9l0.4-0.8c0.1,0.2,0.2,0.6,0.2,1.1c0-0.1,0-0.2,0-0.3c0.3,0.4,0.4,1.1,0.4,1.7
						c-0.1-0.2-0.3-0.4-0.4-0.7c0,0.7,0.1,1.6,0.3,2.2c0-0.1,0-0.3,0.1-0.4c0,0.2,0,0.4,0.1,0.5c0.1,0.1,0-0.2,0.1-0.5l0.5,1.2
						l-0.1-0.5l0.9,0.5c0.2-1.5,0.1-3.4,0.8-4.1c0,0.9,0.3,1.5,0.6,2.5c-0.5-1-0.5,0.7-1,0.6c0.3,0,0.3,0.6,0.3,0.8l0.5-1.3
						c0.2,0.9,0.3,0.6,0.6,0.9c-0.6-1.6,0.3-1.3,0.4-1.9c0.2,0.5,0.2,1.1-0.2,1.1c0.7,1.1,0-2.1,0.7-1.2c-0.1,0-0.2,0-0.1,0.3
						c0.1-0.6,0.7-0.3,0.7,0.2l-0.1,0c0.7,0,1.8-0.6,1.6-1.9c0,0.2,0.3,1.6,0.4,1.8l0-4.6c0.2,1.1,1.2,3.5,0.9,4.3
						c0.2,0.1,0.4,0.2,0.6-0.3c-0.1-0.1-0.6-1.4-0.5-1.6c0.7,1.1,0.4,0.6,1.1,1.4c-0.2-0.2-0.5-1.9-0.2-1.9c0,0.3,0.4,1.6,0.4,1.8
						l0.2-1.8c-0.1,0.3,0.3,1.3,0.6,1.7c-0.1-0.3,0.5-0.2,0.6-0.4l-0.3-0.3c0.7,0,0.1-2.3,0.8-2.4c0,0.3,0.3,1.9,0.7,2
						c-0.1-0.8-0.3-3.8,0.2-4.4l0.2,0.4l0.3-0.5c0,1.1-0.2,3.5-0.4,4.6c0.3,0.2,0.2,0.5,0.6,0.3c0.2,0.3,0,0.7-0.1,0.7l0.9-0.1
						c-0.3-0.8,0.4-1.1,0.2-1.7l-0.7,1.2c-0.3-0.8-0.1-2.5,0.6-2.6c0.2,0.3,0.3,1.5,0.3,1.7c0-0.3,0.4-0.7,0.5-0.6l-0.1,0.5
						c0.4,0.2,0.3-1.2,0.9-0.6c0.2,0,0.7,0.8,0.6,0.4c-0.4-0.8-1.2-3.4-1.2-4.1c0.1,0.1,1,0.7,1.2,1c0.4,0.6,0.1,1.6,0.4,2.1
						c0-0.2,0-0.5,0.1-0.6c0.2,0.1,0.1,0.6,0.4,0.4c-0.1-0.7,0.7-0.2,0-0.7c0.3-0.3,0.4,0,0.7-0.1c-0.2-0.4-0.1-1.6,0.2-1.9
						c0,0.2,0.2,0.4,0.2,0.5c0.7-0.1,1.1,0.1,1.7-0.1c0.1,0.1,0.4,0.2,0.4,0.5c0.1-0.1,0.1-0.4,0.3-0.4c0.5,0.4-0.4,0.2,0,0.8
						c-0.1-0.4,0.3-0.6,0.6-0.9c-0.2-0.5-0.6,0.1-0.8,0.4c-0.2-0.8,0.1-1.7,0.6-2.1c0.5-0.3,0.3,0.4,0.4,0.3c1-0.1,0.5-1.4,1.4-1
						c0.4,0.3,0.2,0.8,0.4,1.1c-0.4,0.3-0.7-0.1-1,0l0.4,0.1c-0.1,0.2-0.3,0.4-0.5,0.3c0.4,0.3,1.6-0.3,2.4-0.2
						c0.1-0.2,0.3-0.4,0.1-0.5l-0.2,0.1c-0.3-0.3,0.3-0.5,0-0.6c0.3-0.3,0.5-0.7,1-0.6l0.2,0.4c0-0.1-0.4-0.2-0.4,0
						c0.1-0.2,0.8,0.4,0.9-0.2l-0.4-0.2c0.3-0.3,0.6-0.7,1-0.7c-0.3-0.3-0.1,0.1-0.5-0.3c0.4,0.5-1,0.1-0.5,0.6
						c-0.4-0.5-0.6-0.1-1.1-0.6c0,0.1,0.2,0.2-0.1,0.2c0,0,0,0.1,0,0.1c0,0,0,0,0,0l0,0c0,0,0,0,0,0c0.1,0,0.2,0.1,0.2,0.2
						c-0.1,0.3-0.6,0.4-0.7,0.6c-0.2,0,0-0.2-0.1-0.3l-0.2,0.3c-0.1-0.3-0.7-0.5-0.3-0.7l-0.4,0c-0.3-0.2-0.7-0.2-0.8,0
						c-0.2-0.1-0.4,0.5-0.3,0.2l-0.6,0.3l0-0.1c-0.7,0-1.2,0.9-2.1,0.2c-0.2,0.1-0.4,0.3-0.8,0.2l-0.2-0.4c-0.2,0.2-0.9-0.3-1,0.1
						c-0.6-1-1.4-0.1-2-0.2l0.1,0.6c-0.3,0-0.6,0.2-1,0.5l0.2,0.5c-0.2,0.5-1-0.2-1.6-0.1c0-0.2,0.1-0.2,0.3-0.1
						c-1-1.1-1.2,1.1-2.1,0.3c-0.1,0.2-0.2,0.2-0.4,0.1c0,0,0,0,0,0c0,0,0,0-0.1,0c-0.1-0.1-0.2-0.2-0.3-0.3
						c0.1,0.1,0.2,0.2,0.3,0.3c-0.1,0-0.3,0.1-0.4,0.3l-0.2-0.6c0,0,0,0,0,0c-0.2-0.2-0.1,0.3,0.2,0.8c-0.1,0.1-0.1,0.3-0.1,0.4
						c-0.4-1-0.4,0.4-0.9-0.7c0,0.6-0.8,0.6-0.6,1.8c0-0.2-0.1-0.2,0-0.2c-0.2-0.1-0.5-0.2-0.5,0.2l-0.3-0.9l-0.1,1.3
						c-0.4-0.5-0.6-0.8-0.5-1.5c-0.3,1.2-0.4,0.5-0.6,1.7l-0.1-0.6c-0.2,0.1-0.3,0.9-0.5,0.5c-0.7-1.1-2.1,0.3-3.5-0.7
						c0.7,1.9-0.7-0.8-0.4,0.7c-0.2-0.5-0.4-0.7-0.3-1.1c-0.4,0.6-1-0.6-1.1,0.8c-0.2-0.5-0.1-0.7-0.2-1c0,0.1-0.1,0.4-0.2,0.2
						c-0.1-0.3,0-0.4,0-0.6c-0.6,0.2-0.2,1.7,0.1,3.1c-0.5-0.6-0.6-0.5-0.5,0.5c-0.2-0.5-0.5-0.9-0.2-1.2c-0.2,0-1.4-0.5-1.1,0.7
						c-0.1-0.3-0.3,0-0.3,0.1c-0.5,0-0.5-0.1-0.9,0.1l0.2,0.2c0.2,1.5-0.3,0.4-0.6,0.7l0-0.2c-1.1-0.9-0.2,0.6-1.3-0.5l0.3,1
						c0.5,2.1-1-1.1-1.3-0.2l0.3,0.5c-0.1,0.8-1.5-2.8-1.8-3c-0.1-0.2,0-0.3,0.1-0.5c-1-1.2,0.3,1.3-0.2,1.7
						c-0.3-0.7-0.4-1.8-0.7-1.9c-0.3-0.6-0.4,2.5-1.2,1.2c0.3,0.6,0.5,1.1,0.4,1.6c-0.3,0.3-1.5-2-1.4-0.1c-0.1-0.2-0.1-0.3-0.2-0.4
						c-0.1,0.5-0.7,1-0.6,2c-0.6-1.9-0.9-1.3-1.2-0.8c-0.3,0.6-0.5,1.2-0.9-0.6l-0.8,0.3l-0.1-0.4c-0.6-0.2-0.6,0.8-0.5,1.7
						c-0.2-0.2-0.2-0.6-0.2-0.8c-1-0.6-1-0.5-1.2,1.6l-0.4-1.2c0,0.8-1.7-1.8-2-0.2c0-0.1-0.1-0.4-0.1-0.6c-0.2,0.8-1,0-1.6-0.4
						c-0.6-0.4-1-0.5-0.5,2l-0.2,1.3c0.8,0.2,0.5,2.2,1,2.9c-0.2,0.4-1.1-1.3-0.8-1.6l0.1,0.2c-0.6-2.6-1.1-0.7-1.6-2.5
						c-1.4,0.4-3.2-0.8-4.6-0.7l0.7,2.1l-0.5,0c-0.3-0.5-0.6-1.7-0.3-1.6c-0.5-1.2-0.3,1.1-0.2,1.6c-0.9-0.8-0.4-2.6-0.6-2.6
						l-0.2,0.2l0.1,0.2c0,0.9,0.2,1.9-0.2,1.9c-0.4-0.4-0.5-1.3-0.6-1.4c0-0.2-0.1-0.2-0.2,0l-0.6-0.1l0.7,1.7c0,0.9-0.6,0,0.2,2
						c-1.2-3-2.5-0.7-3-1.6c0,1.4-0.4,1.5-0.9,1.4c0.2,0.4,0.8,2.5,0.4,2.3c-1-4.4-1.2-1.7-2.4-4.9c0.8,2.1-1,0.7,0.3,3.7
						c-0.4-0.3-0.5-1.7-1-2.7c-0.3,1.9-2-0.8-2.8-0.1c0.1,0.6,0.6,1.5,0.6,2.5l-1.3-3c-0.1,0.3,0.8,3.6-0.1,1.5
						c0.2,0.5,0.5,1.3,0.4,1.5c-1.3-1.3-2.1-0.6-3-0.1c-0.9,0.5-1.8,0.6-3.6-2.2c0.6,1.2,0.5,1.4,0.3,1.5c0.2,0.3,0.4,1.6,0.7,2.5
						l-1.5-2.4c0.5,2.5-0.8,0.3-0.2,2.8l0.1-0.5c0.4,2.9,2.1,6.3,3.1,9.9c-0.5-3.3,2.2,4.4,1.6-0.3c0.3,0.7,0.2,1.2,0.5,2
						c-0.3-1.6-0.2-2,0.4-1.4l0.1,0.4c0.8-0.7,1.6,0.7,2.9,1.2l-0.5-1.7c0.3,0.1,0.5,0.7,0.7,1.1c-0.4-2.7-0.7,0.1-1.2-2.9
						c1.2,3.4,1.6-0.5,2.8,3.3c0.4-0.1-0.6-1.9-0.3-2l0.4,1l-0.3-1.4c0.3,0.1,0.7,1.4,1,2.3c-0.1-0.1-0.1,0.3-0.1,0.4
						c0.6,1.1,0.7-0.7,0.9-0.4l-0.5-0.5c0.7-1.3,2.2-0.4,2.6-2.8l-0.3-0.7c0.3-1.6,0.8,0.6,1.4-0.3l0,0.2c0-0.8,0.1-1.2,0.3-1.2
						c0,0.9,0.8,1.5,0.8,2.6c0.4-1.7,0.1-1.3-0.1-4.1l0.4,1.1c-0.1-1.1-0.2-1.7,0.1-2.1c-0.1,1.1,0.7,1.7,0.7,3.2
						c1.5,2.3,0.5-3,1.9,0.6c-0.5-3.3-1.2-1.5-1.1-2.3c-0.5-1-0.3-2.5,0-2.2c0.3,0,1.5,3.9,2.1,3.6c-0.1,0,0,0.2-0.1,0.3
						c0.5,0.7,0.2-1.2,0.8-0.1c-0.3-1.9,0.4,0-0.2-2.4l-0.5,0.8c0.2-0.7-0.2-3.6,0.7-2.4c0.1,0.5,0.1,1.2,0.1,1.6
						c0.3,0.6,0.2-0.6,0.6,0.1c0.6,2.4-0.6,0.8-0.5,2.7c0.4,0.9,0.2-2,0.7,0.7c-0.6-3.3,0.7,0.2,0.5-2.5l0.3,1.4c0-0.2,0-1,0.1-1
						l0.2,1.9c-0.1-1.7,1,1.1,1.1,0.1c-0.7,0.3-0.6-1.6-1.2-2.5c0.4-2.1,1.5,3.4,2.3,2.3c-0.1,0.2-0.7-0.6-0.7-1.3
						c0.3,0.2,0.6,0.6,0.9,1.3c0.6-0.5-0.5-1.3-0.4-2.3c0.7,1.5,0.1-0.8,0.3-1.4l0.4,1.3c1,0.6-0.5-2.9,0.4-2.1l0.2,1.9l0.2-0.6
						l0.3,1.5c0.1-1.3,0.3-1,0.8-0.7c-0.3-0.9-0.6-2.4-0.3-2.5c0.4,0.7,0.2,1.3,0.6,0.9c0.1,0.8,0.3,1.9-0.3,0.8
						c0.1,0.4,0.1,0.9,0.2,1.3c0.5,0.8,0.7,0,0.8-0.1c-0.1,0-0.2-0.1-0.3-0.2l0.2-2c0.2,0.4,0.2,0.9,0.3,1.3c0.1-0.2,0-0.8,0.2-1
						c0.2,1,0.5,2.1,0.4,2.7l0.3-1.4c0.2,0.4,0.6,1.1,0.7,1.5c0.5,0.4,0.3-2.3,1-1.7c0-0.2,0-0.4,0-0.6c0.5,0.1,1.2,1.1,1.4-0.5
						l0.8,1.6c0.3-0.6-1-2-0.5-2.9c0.3-0.7,0.6,1.4,0.9,1.8c0-1,0-2.8,0.8-1.6C331.3,183.3,331.1,183.1,331,183.3z M335.9,180.7
						c0,0.3-0.1,1-0.3,0.4C335.4,179.8,335.6,180.4,335.9,180.7z M343,175.7c0,0.3-0.2,0.2-0.4-0.1
						C342.7,175.5,342.9,175.5,343,175.7z M364.2,166.3L364.2,166.3C363.9,166.2,364,166.2,364.2,166.3z M364.7,166.3
						c0-0.1,0-0.1,0-0.2c0,0.1-0.1,0.1-0.2,0.1C364.5,166.4,364.6,166.4,364.7,166.3z M313.3,175.3l0.2,0.4
						C313.4,176.2,313.3,175.8,313.3,175.3z"/>
					<path class="st0" d="M342.5,177.2c-0.1-0.1-0.1-0.3-0.2-0.5C342.3,176.9,342.3,177.1,342.5,177.2z"/>
					<path class="st0" d="M328,185.2C328,185.2,328,185.2,328,185.2c0,0.1,0,0.1,0,0.2L328,185.2z"/>
					<path class="st0" d="M358.4,171.9c-0.1,0-0.2-0.1-0.3-0.2C358.2,171.9,358.3,172,358.4,171.9z"/>
					<path class="st0" d="M367.1,165.4l-0.3,0.1c0.1,0,0.2,0,0.3,0.1C367.1,165.5,367,165.4,367.1,165.4z"/>
					<path class="st0" d="M370.2,166.6c0,0,0.1,0,0.1-0.1l0-0.1C370.1,166.5,370,166.6,370.2,166.6z"/>
					<path class="st0" d="M367.7,166.4c0.1,0.2,0.3,0.1,0.5,0c0,0,0,0,0,0C368.1,166,367.9,166.2,367.7,166.4z"/>
					<path class="st0" d="M368.2,166.4c0.1,0,0.1,0,0.2,0C368.3,166.2,368.3,166.3,368.2,166.4z"/>
					<path class="st0" d="M365.3,166c0.1,0.1,0-0.4,0.1-0.3C365.3,165.4,364.7,166.3,365.3,166z"/>
					<polygon class="st0" points="368,167.1 367.9,166.8 367.8,167.1 					"/>
					<path class="st0" d="M366.3,167.3l0.4,0c0-0.1,0-0.1,0.1-0.1C366.5,167.2,366.3,167.2,366.3,167.3z"/>
					<path class="st0" d="M366.7,167.2c0.1,0,0.2-0.1,0.3-0.1C366.9,167.1,366.8,167.1,366.7,167.2z"/>
					<polygon class="st0" points="367.6,167.3 367.5,167.3 367.2,167.3 					"/>
					<path class="st0" d="M362.7,168.1l-0.3,0.2c0,0.2,0.1,0.2,0.2,0.1C362.6,168.3,362.8,168.3,362.7,168.1z"/>
					<path class="st0" d="M364.1,169c-0.1-0.1-0.2-0.1-0.2-0.3l0.1,0.5L364.1,169z"/>
					<path class="st0" d="M363.1,169.4c0,0.2-0.4,0.6,0,0.4C363.1,169.7,363.4,169.4,363.1,169.4z"/>
					<polygon class="st0" points="357.4,170.3 357.5,170.2 357.2,169.1 					"/>
					<path class="st0" d="M353.4,174.8c0.5,0.2-0.1-0.9,0.4-0.6c0-0.3-0.4-0.2-0.4-0.5C353.2,174.1,353,174,353.4,174.8z"/>
					<path class="st0" d="M353.4,173.7c0-0.1,0.1-0.1,0.1-0.2C353.4,173.6,353.4,173.6,353.4,173.7z"/>
					<polygon class="st0" points="295.3,176.4 294.8,175.6 295.3,176.9 					"/>
					<path class="st0" d="M295.5,179.3l-0.7-2.5l0.4,2.3C295.3,179,295.3,178.8,295.5,179.3z"/>
					<path class="st0" d="M337.4,183.1l-0.1-0.3c-0.1-0.3-0.2-0.3-0.3-0.3L337.4,183.1z"/>
					<polygon class="st0" points="333.4,183.6 333.5,183.6 333,182.4 					"/>
					<path class="st0" d="M330.9,186.7c0.1,0,0.2-0.4,0.3-0.4C331,186.7,330.3,185,330.9,186.7z"/>
				</g>
			</g>
		</g>
	</g>
	<g>
		<line class="st1" x1="213.1" y1="348.3" x2="318.8" y2="329"/>
		<g>
			<g>
				<g>
					<path class="st0" d="M318.7,329c0,0,0.1,0,0.1,0C318.6,329,318.7,329,318.7,329z"/>
					<polygon class="st0" points="316.1,329.4 316.2,329.3 315.8,329.4 					"/>
					<path class="st0" d="M313.7,329.7c0.3,0.1,0.9-0.1,1.3-0.1l0.1,0l0.2-0.1C314.7,329.5,314,329.6,313.7,329.7z"/>
					<path class="st0" d="M312.3,329.5c0.1,0.1-0.3,0.1,0.3,0c0,0,0,0-0.1,0C312.5,329.4,312.4,329.4,312.3,329.5z"/>
					<path class="st0" d="M312.6,329.4C312.8,329.4,312.4,329.4,312.6,329.4L312.6,329.4z"/>
					<path class="st0" d="M311.4,329.6l0.3-0.1c-0.1,0-0.4,0-0.3-0.1C311.1,329.5,311.2,329.5,311.4,329.6z"/>
					<path class="st0" d="M311.1,329.7l0.2,0C311.2,329.7,311.2,329.7,311.1,329.7z"/>
					<path class="st0" d="M311.6,329.6l-0.4,0.1c0.1,0,0.1,0.1,0.2,0C311.4,329.7,311.5,329.7,311.6,329.6z"/>
					<path class="st0" d="M311.8,329.6c0.2,0,0.4,0,0.1,0.1C312.6,329.6,312.5,329.5,311.8,329.6z"/>
					<path class="st0" d="M313.6,329.8l0.3,0l0.2-0.1C313.9,329.8,313.6,329.8,313.6,329.8z"/>
					<path class="st0" d="M309.2,329.6c0,0.1,0.1,0.1,0.2,0.2l0.2-0.1C309.5,329.7,309.3,329.7,309.2,329.6z"/>
					<path class="st0" d="M309.4,329.8l-0.4,0.1C309.4,329.9,309.4,329.8,309.4,329.8z"/>
					<polygon class="st0" points="311.1,330 311.6,329.7 310.9,330 					"/>
					<polygon class="st0" points="307.8,329.7 308,329.5 307.6,329.8 					"/>
					<path class="st0" d="M306.8,329.8c0.1-0.1-0.3-0.2-0.1-0.3c-0.3,0-0.5,0.2-0.6,0.3C306.3,329.7,306.5,329.7,306.8,329.8z"/>
					<path class="st0" d="M305.8,329.9c0.1,0,0.2-0.1,0.3-0.2C306,329.8,305.9,329.8,305.8,329.9z"/>
					<path class="st0" d="M308.4,329.9c0,0-0.1-0.1-0.3-0.1l0.2,0.2C308.3,330,308.3,330,308.4,329.9z"/>
					<path class="st0" d="M308.3,330L308.3,330c-0.2,0-0.3,0-0.3,0C308,330,308.1,330,308.3,330z"/>
					<path class="st0" d="M308.4,329.9L308.4,329.9C308.4,330,308.4,330,308.4,329.9z"/>
					<path class="st0" d="M310.1,330c-0.2,0.1-0.6,0.2-0.2,0.3C310,330.2,309.7,330.1,310.1,330z"/>
					<path class="st0" d="M308.7,330.1l0.4,0c0,0-0.1-0.1,0-0.1L308.7,330.1z"/>
					<polygon class="st0" points="308.5,330.2 308.7,330.1 308.5,330.1 					"/>
					<path class="st0" d="M306.5,330c-0.2,0.1-0.3,0.1-0.6,0.2c0.2,0,0.5,0,0.7,0C306.7,330.1,306.7,330,306.5,330z"/>
					<path class="st0" d="M307.4,330L307.4,330C307.3,330,307.4,330.1,307.4,330z"/>
					<polygon class="st0" points="303.8,330.4 303.9,330.4 303.9,330.4 					"/>
					<path class="st0" d="M306.7,330.2c0.2,0,0.3,0,0.4-0.1C306.9,330.2,306.8,330.2,306.7,330.2
						C306.6,330.2,306.6,330.2,306.7,330.2z"/>
					<path class="st0" d="M305.2,330.1c0.1,0,0.2,0.1,0.3,0.1C305.4,330.1,305.2,330,305.2,330.1z"/>
					<path class="st0" d="M307.2,330L307.2,330C307.2,329.9,307.2,330,307.2,330z"/>
					<path class="st0" d="M307.2,330c-0.1,0-0.1,0.1-0.2,0.1C307.1,330.1,307.2,330.1,307.2,330C307.3,330,307.3,330,307.2,330z"/>
					<path class="st0" d="M303.5,332c0-0.2,0.4-0.5,0.8-0.4c0.3-0.2,0-0.9-0.4-1.2c0,0.1,0,0.2-0.3,0.4c0.2,0.1,0.9,0.2,0.6,0.4
						c-0.5,0.2-0.4,0-0.7-0.1c0.3,0.2-0.6,0.5-0.4,0.9l0.4-0.2C303.5,331.9,303.4,332,303.5,332z"/>
					<path class="st0" d="M304.6,330.4l0.2,0c-0.2,0-0.3-0.1-0.6-0.2c-0.3,0.1-0.3,0.2-0.3,0.3L304.6,330.4L304.6,330.4z"/>
					<path class="st0" d="M305.5,330.3c-0.1,0.2-0.5,0.4-0.2,0.6c0.5-0.1,0.3-0.2,0.6-0.3C305.2,330.6,306.1,330.4,305.5,330.3
						c0.2,0,0.3,0,0.4-0.1c-0.1,0-0.3,0-0.4-0.1l0,0l0,0l0,0C305.6,330.2,305.6,330.2,305.5,330.3L305.5,330.3
						C305.5,330.2,305.5,330.2,305.5,330.3C305.3,330.2,305.5,330.2,305.5,330.3c0-0.1,0-0.1,0-0.1l0,0l-0.7,0.2
						C305,330.4,305.2,330.3,305.5,330.3z"/>
					<path class="st0" d="M309.5,330.7C309.5,330.6,309.5,330.6,309.5,330.7C309.4,330.7,309.4,330.7,309.5,330.7z"/>
					<path class="st0" d="M309.2,330.6c0.1,0,0.1-0.1,0.3-0.1c0.2,0,0,0.1,0,0.1c0.1-0.1,0.4-0.2,0-0.2l-0.1,0
						c-0.3,0-0.7-0.1-0.7-0.2C308.9,330.4,309,330.5,309.2,330.6z"/>
					<path class="st0" d="M307.4,330.6l-0.6,0.2l0.4,0.1l0-0.1C307.4,330.7,307.3,330.6,307.4,330.6z"/>
					<polygon class="st0" points="303.7,330.3 303.8,330 303.5,330.4 					"/>
					<polygon class="st0" points="302.9,330.4 302.9,330.2 302.7,330.3 					"/>
					<path class="st0" d="M257.9,345.8l-0.1,0.3C257.9,346,257.9,345.9,257.9,345.8z"/>
					<path class="st0" d="M259.3,345.5l0-0.4C259.2,345.3,259.2,345.4,259.3,345.5z"/>
					<path class="st0" d="M282.5,332.2c-0.4-0.5-0.8-1.2-0.7-0.6l0.2,0.6C282.2,332,282.3,332.1,282.5,332.2z"/>
					<path class="st0" d="M269.3,338.2c0,0.1,0.1,0.2,0.1,0.2c0-0.3,0-0.5,0-0.8C269.4,337.8,269.4,338,269.3,338.2z"/>
					<path class="st0" d="M269.7,341.6l-0.4-0.4C269.4,341.3,269.5,341.5,269.7,341.6z"/>
					<path class="st0" d="M250.9,348.9l0,1.2C251.3,350,251,349.5,250.9,348.9z"/>
					<path class="st0" d="M294.4,331.3c-0.3-0.1-0.5-0.2-0.6-0.2C294.1,331.3,294.4,331.6,294.4,331.3z"/>
					<path class="st0" d="M256.5,335.1c-0.1,0.2-0.1,0.4-0.1,0.6C256.6,335.5,256.6,335.3,256.5,335.1z"/>
					<path class="st0" d="M293.1,331.1c0,0,0.1,0.1,0.1,0.1c0.2-0.1,0.3-0.2,0.5-0.1C293.5,330.9,293.3,330.8,293.1,331.1z"/>
					<path class="st0" d="M224.7,355.3c0-0.1-0.1-0.1-0.1-0.2C224.6,355.3,224.6,355.3,224.7,355.3z"/>
					<path class="st0" d="M214,340.5c0.1-0.1,0.2-0.1,0.3-0.2C214.2,340.3,214.1,340.3,214,340.5z"/>
					<path class="st0" d="M299.5,330.5C299.7,330.5,299.6,330.5,299.5,330.5L299.5,330.5z"/>
					<path class="st0" d="M300.6,331.6c0,0-0.1,0.1,0,0.2C300.6,331.7,300.6,331.7,300.6,331.6z"/>
					<path class="st0" d="M291.8,334L291.8,334C291.9,334.1,291.9,334.1,291.8,334z"/>
					<path class="st0" d="M299.8,330.7c-0.1,0-0.2-0.1-0.2-0.1C299.6,330.6,299.7,330.6,299.8,330.7z"/>
					<path class="st0" d="M299.8,330.5c0.1,0,0.1,0,0.2,0C299.9,330.5,299.9,330.5,299.8,330.5z"/>
					<path class="st0" d="M299.3,330.6c0.1,0,0.2,0,0.3,0c0,0-0.1,0,0,0C299.5,330.5,299.4,330.6,299.3,330.6z"/>
					<path class="st0" d="M238,347.9c0,0,0-0.1-0.1-0.1C237.9,348.3,237.9,348.2,238,347.9z"/>
					<path class="st0" d="M279.1,339.4C279.1,339.4,279.1,339.3,279.1,339.4L279.1,339.4L279.1,339.4z"/>
					<path class="st0" d="M278.6,340c0.1-0.9,0.3-0.8,0.5-0.7l-0.5-1.8L278.6,340z"/>
					<path class="st0" d="M254.8,346.9l0.6,0.8c-0.2,1.7-0.7,1.3-0.1,2.5c-0.5-3.3,1.6-0.9,1.1-4.1l0.4,0.6c-0.1,0-0.1,0.2-0.2,0.2
						c0.8,1.4,0-2.4,0.8-2.1c0.3,0.2,0.5,0.6,0.4,1l0.4-0.9c0.2,0,0.2,0.6,0.1,0.5l0.8-0.5l0,0.1c0-0.5,0.2-1.3,0.2-1.7
						c0.3,0.4,0,0.3,0.1,0.7l0.3-0.8c0.3,0.7,0.1,1.6-0.3,1.6c1,2.9,0.3-0.9,1.5,0.6l-0.4,0.5c0.6,1.6,0.8,0.9,1.5,1.8
						c-0.2-0.5-1.5-2.3-1.1-3.2c0.2,0.2,0.4,0.2,0.6-0.4c0.2,1,0.4,0.7,0.7,0.6l0.2,1.4c0.3-0.5,0.1-1.2,0.2-1.9c0.4,0,0.7,1,1,1.9
						c0.7,0-0.7-1.5,0-2c0.6,0.4,0.9-0.3,1.4-1.2c0.5,0.3,0.1,0.8,0.3,1.1l0.1-1.1c0.1,0,0.1,0.3,0.1,0.5c0.2-0.5-0.2-1.3,0.2-1.7
						c-0.1-1.4,1.3,1.8,1.5,0.1c0.2,0.3,0.1,0.8,0.2,1.2c0.6-1.2,0.5-0.9,0.9-2.4l0.7,0.7c-0.6-0.8-0.3-2,0-2.9
						c-0.2-0.4-0.4-0.8-0.5-0.9l0.6-0.7c0.1,0.2,0.1,0.6,0.1,1.1c0-0.1,0.1-0.2,0.1-0.3c0.3,0.4,0.3,1.1,0.3,1.8
						c-0.1-0.2-0.3-0.4-0.4-0.7c0,0.7-0.1,1.6,0.1,2.3c0-0.1,0.1-0.3,0.2-0.4c0,0.2,0,0.4,0,0.5c0,0.1,0.1-0.2,0.1-0.5l0.4,1.3
						l-0.1-0.5l1,0.6c0.4-1.5,0.6-3.4,1.6-4.1c-0.1,0.9,0.2,1.5,0.4,2.5c-0.5-1.1-0.7,0.7-1.3,0.6c0.3,0.1,0.3,0.6,0.3,0.8l0.8-1.3
						c0.1,0.9,0.3,0.6,0.6,0.9c-0.5-1.7,0.5-1.3,0.8-1.9c0.1,0.6,0.1,1.1-0.4,1.1c0.7,1.1,0.3-2.1,1-1.2c-0.1,0-0.2,0-0.2,0.3
						c0.2-0.6,0.9-0.3,0.8,0.2l-0.1,0c0.8,0,2.3-0.6,2.2-1.9c0,0.2,0.2,1.6,0.2,1.9c0.2-1.6,0.4-3.1,0.6-4.6c0.1,1.1,1,3.6,0.5,4.4
						c0.2,0.1,0.5,0.2,0.8-0.3c-0.2-0.1-0.6-1.5-0.4-1.6c0.7,1.1,0.4,0.6,1.2,1.4c-0.2-0.2-0.3-1.9,0-1.9c0,0.3,0.3,1.6,0.2,1.8
						l0.4-1.8c-0.1,0.3,0.2,1.4,0.5,1.7c-0.1-0.3,0.6-0.1,0.8-0.3l-0.4-0.3c0.9,0,0.4-2.3,1.3-2.4c0,0.3,0.1,1.9,0.5,2
						c0.1-0.8,0.2-3.8,0.8-4.4l0.2,0.4l0.5-0.5c-0.2,1.1-0.7,3.6-1.1,4.6c0.4,0.3,0.2,0.5,0.6,0.3c0.2,0.3-0.1,0.7-0.3,0.7l1.1-0.1
						c-0.2-0.8,0.7-1.1,0.5-1.7l-1,1.2c-0.2-0.8,0.2-2.6,1-2.6c0.3,0.3,0.1,1.5,0.2,1.8c0-0.3,0.6-0.7,0.7-0.5l-0.2,0.5
						c0.5,0.2,0.5-1.2,1.1-0.6c0.2,0,0.7,0.8,0.7,0.4c-0.4-0.8-1-3.5-0.9-4.2c0.1,0.1,1.1,0.7,1.4,1.1c0.4,0.6-0.2,1.7,0.2,2.2
						c0-0.2,0.1-0.5,0.1-0.6c0.2,0.1,0,0.6,0.4,0.4c-0.1-0.8,0.8-0.1,0.1-0.7c0.4-0.3,0.4,0.1,0.9-0.1c-0.2-0.4,0.1-1.6,0.5-1.9
						c0,0.2,0.1,0.4,0.2,0.5c0.8-0.1,1.3,0.1,2.1,0c0.1,0.1,0.5,0.2,0.4,0.5c0.1-0.1,0.1-0.4,0.4-0.4c0.5,0.4-0.5,0.2,0,0.8
						c0-0.4,0.5-0.6,0.8-0.9c-0.2-0.5-0.8,0-1.1,0.4c-0.1-0.8,0.3-1.7,1-2.1c0.6-0.3,0.4,0.4,0.5,0.3c1.2-0.1,0.8-1.3,1.9-1
						c0.5,0.4,0.2,0.8,0.3,1.1c-0.5,0.3-0.8-0.1-1.2-0.1l0.5,0.1c-0.1,0.2-0.5,0.3-0.7,0.2c0.4,0.3,2-0.3,3-0.1
						c0.1-0.2,0.4-0.3,0.2-0.5l-0.3,0.1c-0.3-0.3,0.5-0.5,0.1-0.6c0.4-0.3,0.7-0.7,1.3-0.6l0.2,0.4c0-0.1-0.4-0.2-0.5,0
						c0.2-0.2,0.9,0.4,1.1-0.1l-0.4-0.2c0.4-0.3,0.8-0.7,1.3-0.6c-0.3-0.3-0.1,0.1-0.5-0.3c0.4,0.5-1.3,0.1-0.7,0.6
						c-0.5-0.5-0.7-0.2-1.2-0.6c0,0.1,0.2,0.3-0.2,0.2c0,0,0,0.1-0.1,0.1c0,0,0,0,0,0l0,0c0,0,0,0,0,0c0.1,0.1,0.2,0.1,0.2,0.2
						c-0.1,0.3-0.8,0.4-1,0.6c-0.3,0,0.1-0.2-0.1-0.3l-0.3,0.3c-0.1-0.3-0.8-0.5-0.2-0.7l-0.5,0c-0.3-0.2-0.8-0.2-1,0
						c-0.3-0.1-0.5,0.5-0.4,0.1l-0.8,0.3l0-0.1c-0.8,0-1.5,0.8-2.6,0.2c-0.3,0.1-0.5,0.3-1,0.2l-0.2-0.4c-0.3,0.2-1.1-0.3-1.2,0.1
						c-0.6-1-1.7-0.1-2.4-0.3l0.1,0.6c-0.4,0-0.8,0.2-1.3,0.5l0.1,0.5c-0.4,0.5-1.2-0.2-1.9-0.1c0-0.2,0.2-0.2,0.4-0.1
						c-1.1-1.2-1.6,1.1-2.6,0.3c-0.2,0.2-0.3,0.2-0.5,0c0,0,0,0,0,0c0,0-0.1,0-0.1,0c-0.1-0.1-0.2-0.2-0.3-0.3
						c0.1,0.1,0.2,0.2,0.3,0.3c-0.1,0-0.4,0.1-0.6,0.3l-0.2-0.6c0,0,0,0,0,0c-0.3-0.2-0.1,0.3,0.1,0.8c-0.1,0.1-0.2,0.3-0.2,0.4
						c-0.4-1-0.5,0.4-1-0.7c0,0.6-1,0.5-0.9,1.8c0-0.2-0.1-0.2,0-0.3c-0.3-0.1-0.5-0.2-0.7,0.2l-0.3-0.9l-0.3,1.3
						c-0.4-0.5-0.6-0.8-0.4-1.6c-0.6,1.2-0.6,0.5-1,1.7l-0.1-0.6c-0.2,0-0.5,0.9-0.7,0.4c-0.7-1.1-2.6,0.2-4.2-0.8
						c0.6,2-0.8-0.8-0.6,0.7c-0.2-0.5-0.4-0.7-0.3-1.2c-0.6,0.5-1.2-0.7-1.4,0.7c-0.2-0.5,0-0.7-0.1-1c0,0.1-0.1,0.5-0.3,0.2
						c-0.1-0.3,0-0.4,0.1-0.6c-0.7,0.1-0.5,1.7-0.3,3.2c-0.5-0.6-0.6-0.5-0.7,0.5c-0.2-0.5-0.5-0.9-0.1-1.2c-0.3,0-1.6-0.5-1.4,0.7
						c-0.1-0.3-0.4,0-0.4,0.1c-0.6,0-0.6-0.1-1.2,0.1l0.2,0.2c0.1,1.5-0.4,0.4-0.8,0.6l0-0.2c-1.2-1-0.3,0.6-1.6-0.5l0.2,1
						c0.3,2.1-1.1-1.1-1.5-0.2l0.3,0.5c-0.2,0.8-1.4-2.8-1.8-3.1c-0.1-0.2,0.1-0.3,0.1-0.5c-1.1-1.2,0.1,1.3-0.4,1.7
						c-0.2-0.7-0.2-1.9-0.6-2c-0.3-0.6-0.8,2.5-1.6,1.1c0.2,0.6,0.5,1.1,0.3,1.6c-0.4,0.3-1.6-2.1-1.7-0.2c-0.1-0.2-0.1-0.3-0.2-0.5
						c-0.2,0.5-0.9,0.9-1,2c-0.5-1.9-0.9-1.4-1.3-0.8c-0.4,0.6-0.7,1.2-1.1-0.6l-1,0.3l0-0.4c-0.7-0.2-0.8,0.8-0.8,1.7
						c-0.2-0.2-0.2-0.6-0.2-0.8c-1.1-0.7-1.2-0.5-1.6,1.6l-0.3-1.3c-0.1,0.8-1.8-1.9-2.4-0.2c0-0.1,0-0.4,0-0.6
						c-0.4,0.8-1.2,0-1.9-0.5c-0.7-0.5-1.1-0.5-0.9,2l-0.5,1.3c1,0.3,0.3,2.2,0.8,3c-0.3,0.4-1.2-1.4-0.8-1.7l0.1,0.2
						c-0.3-2.6-1.3-0.8-1.6-2.6c-1.8,0.4-3.8-1-5.5-0.9l0.6,2.2l-0.6-0.1c-0.2-0.5-0.5-1.7-0.1-1.7c-0.4-1.2-0.5,1.1-0.4,1.6
						c-1-0.8-0.2-2.6-0.4-2.7l-0.3,0.2l0.1,0.3c-0.1,0.9,0,1.9-0.5,1.9c-0.4-0.4-0.4-1.4-0.6-1.5c0-0.2-0.1-0.2-0.2,0l-0.8-0.1
						l0.6,1.8c-0.2,0.9-0.7,0,0,2c-1.1-3.1-3-0.8-3.4-1.8c-0.2,1.4-0.7,1.5-1.3,1.4c0.2,0.4,0.7,2.5,0.2,2.3c-0.6-4.5-1.2-1.8-2.2-5
						c0.7,2.1-1.3,0.7-0.2,3.7c-0.5-0.3-0.3-1.7-0.8-2.7c-0.6,1.9-2.3-0.9-3.4-0.2c0.1,0.6,0.5,1.5,0.4,2.5l-1.2-3
						c-0.2,0.3,0.4,3.6-0.4,1.5c0.2,0.5,0.4,1.3,0.3,1.5c-1.4-1.4-2.5-0.6-3.6-0.2c-1.1,0.4-2.3,0.6-4.1-2.4
						c0.6,1.3,0.4,1.4,0.1,1.5c0.2,0.3,0.3,1.7,0.5,2.6l-1.5-2.4c0.3,2.6-1,0.3-0.7,2.8l0.2-0.5c0.1,3,1.8,6.4,2.4,10.1
						c-0.1-3.4,2.1,4.6,2-0.3c0.3,0.7,0.1,1.2,0.3,2c-0.1-1.6,0.1-2,0.6-1.4l0,0.4c1.1-0.7,1.9,0.7,3.4,1.4l-0.4-1.7
						c0.3,0.2,0.5,0.7,0.7,1.1c-0.1-2.7-0.8,0.1-1.1-2.9c1,3.4,2-0.4,3,3.5c0.4-0.1-0.5-1.9,0-2l0.3,1l-0.1-1.4
						c0.3,0.2,0.7,1.4,0.9,2.3c-0.1-0.1-0.2,0.3-0.2,0.4c0.6,1.1,1-0.7,1.2-0.3l-0.5-0.5c1-1.3,2.7-0.4,3.5-2.7l-0.2-0.7
						c0.6-1.6,0.9,0.7,1.7-0.2l0,0.2c0.1-0.8,0.3-1.2,0.5-1.2c-0.1,0.9,0.8,1.6,0.6,2.6c0.7-1.7,0.3-1.3,0.4-4.1l0.4,1.2
						c0-1.1-0.1-1.7,0.4-2.1c-0.2,1.1,0.6,1.7,0.4,3.2c1.5,2.3,1-3,2.2,0.7c-0.1-3.4-1.2-1.6-1.1-2.3c-0.4-1-0.1-2.5,0.3-2.3
						c0.3,0,1.3,4,2.1,3.7c-0.1,0,0,0.2-0.1,0.3c0.5,0.7,0.4-1.2,1,0c-0.1-2,0.5,0,0.1-2.4l-0.7,0.7c0.3-0.7,0.2-3.6,1.2-2.4
						c0,0.5-0.1,1.2-0.1,1.6c0.3,0.7,0.3-0.6,0.7,0.1c0.4,2.4-0.8,0.7-0.9,2.7c0.4,1,0.5-2,0.8,0.7c-0.3-3.4,0.9,0.2,1-2.5l0.2,1.4
						c0-0.2,0.1-1,0.3-1l0,1.9c0.2-1.7,1.1,1.1,1.4,0.1c-0.9,0.3-0.5-1.6-1.1-2.5c0.8-2.1,1.3,3.5,2.4,2.4c-0.1,0.2-0.8-0.6-0.6-1.4
						c0.3,0.2,0.7,0.7,1,1.3c0.8-0.5-0.4-1.4-0.2-2.3c0.6,1.6,0.3-0.8,0.6-1.4l0.3,1.4c1.1,0.6-0.3-2.9,0.8-2.1l0,2l0.4-0.6l0.2,1.6
						c0.3-1.3,0.5-1,1-0.7c-0.3-0.9-0.4-2.4,0-2.6c0.4,0.7,0.1,1.3,0.6,1c0,0.9,0.1,1.9-0.4,0.8c0.1,0.4,0,0.9,0.1,1.3
						c0.5,0.8,0.8,0,1-0.1c-0.1,0-0.2-0.1-0.3-0.2l0.5-2c0.2,0.5,0.2,0.9,0.2,1.3c0.1-0.2,0.2-0.8,0.4-1c0.1,1.1,0.3,2.1,0.1,2.7
						l0.6-1.4c0.1,0.4,0.6,1.1,0.6,1.5c0.6,0.5,0.7-2.3,1.5-1.7c0-0.2,0-0.4,0.1-0.6c0.6,0.1,1.3,1.1,1.7-0.4l0.7,1.6
						c0.4-0.5-0.9-2.1-0.2-3c0.5-0.7,0.5,1.4,0.8,1.8c0.1-1,0.4-2.9,1.2-1.6C255.2,347,255,346.8,254.8,346.9z M261.2,344.4
						c-0.1,0.3-0.2,1-0.4,0.4C260.7,343.6,260.9,344.2,261.2,344.4z M270.6,339.7c0,0.3-0.2,0.2-0.4-0.1
						C270.3,339.5,270.4,339.5,270.6,339.7z M297.7,331L297.7,331C297.3,330.9,297.4,330.9,297.7,331z M298.3,331.1
						c0.1-0.1,0-0.1,0-0.2c0,0.1-0.2,0.1-0.3,0.1C298,331.1,298.1,331.2,298.3,331.1z M234.3,338.2l0.2,0.4
						C234.3,339.1,234.3,338.7,234.3,338.2z"/>
					<path class="st0" d="M269.7,341.2c-0.1-0.1-0.1-0.3-0.1-0.5C269.5,340.9,269.5,341.1,269.7,341.2z"/>
					<path class="st0" d="M251,348.7C250.9,348.7,250.9,348.7,251,348.7c0,0.1,0,0.1,0,0.2L251,348.7z"/>
					<path class="st0" d="M289.9,336.5c-0.1,0-0.2-0.1-0.3-0.2C289.6,336.4,289.7,336.5,289.9,336.5z"/>
					<path class="st0" d="M301.3,330.3l-0.4,0.1c0.2,0,0.3,0,0.4,0.1C301.3,330.4,301.2,330.3,301.3,330.3z"/>
					<path class="st0" d="M305,331.6c0,0,0.1,0,0.2-0.1l0-0.1C304.9,331.4,304.7,331.6,305,331.6z"/>
					<path class="st0" d="M301.9,331.2c0.1,0.2,0.3,0.1,0.6,0c0,0,0,0,0,0C302.4,330.9,302.1,331.1,301.9,331.2z"/>
					<path class="st0" d="M302.5,331.3c0.1,0,0.2,0,0.2,0C302.8,331.1,302.6,331.2,302.5,331.3z"/>
					<path class="st0" d="M299,330.8c0.1,0.1,0-0.4,0.1-0.3C299.2,330.2,298.3,331.1,299,330.8z"/>
					<polygon class="st0" points="302.3,332 302.1,331.7 302,332 					"/>
					<path class="st0" d="M300.1,332.2l0.4,0c0-0.1,0-0.1,0.1-0.1C300.4,332.1,300.1,332.1,300.1,332.2z"/>
					<path class="st0" d="M300.7,332c0.1,0,0.3,0,0.3-0.1C300.9,331.9,300.8,332,300.7,332z"/>
					<polygon class="st0" points="301.7,332.2 301.6,332.2 301.3,332.2 					"/>
					<path class="st0" d="M295.6,332.8l-0.4,0.2c0,0.2,0.1,0.2,0.3,0.1C295.5,333.1,295.7,333,295.6,332.8z"/>
					<path class="st0" d="M297.2,333.7c-0.1-0.1-0.2-0.1-0.3-0.3l0.1,0.5L297.2,333.7z"/>
					<path class="st0" d="M295.9,334.1c0,0.2-0.6,0.6,0,0.4C295.9,334.4,296.3,334.2,295.9,334.1z"/>
					<polygon class="st0" points="288.8,334.8 288.9,334.8 288.7,333.6 					"/>
					<path class="st0" d="M283.3,339.2c0.6,0.2,0-0.9,0.5-0.6c0.1-0.4-0.5-0.2-0.4-0.5C283.2,338.5,283,338.4,283.3,339.2z"/>
					<path class="st0" d="M283.5,338.1c0-0.1,0.1-0.1,0.1-0.2C283.5,338,283.5,338,283.5,338.1z"/>
					<polygon class="st0" points="212.3,338.6 211.8,337.8 212.2,339.1 					"/>
					<path class="st0" d="M212.1,341.6l-0.5-2.5l0.2,2.3C211.9,341.3,212,341,212.1,341.6z"/>
					<path class="st0" d="M262.6,347l0-0.3c-0.1-0.3-0.2-0.3-0.4-0.4L262.6,347z"/>
					<polygon class="st0" points="257.8,347.3 257.9,347.4 257.5,346 					"/>
					<path class="st0" d="M254.2,350.4c0.2,0,0.3-0.4,0.5-0.4C254.4,350.4,253.8,348.6,254.2,350.4z"/>
				</g>
			</g>
		</g>
	</g>
	<g>
		<line class="st1" x1="233.5" y1="316.5" x2="203" y2="205.4"/>
		<g>
			<g>
				<g>
					<path class="st0" d="M203,205.6c0,0,0-0.1,0-0.1C203,205.7,203,205.5,203,205.6z"/>
					<polygon class="st0" points="203.5,208.3 203.5,208.3 203.6,208.7 					"/>
					<path class="st0" d="M204,210.9c0.1-0.3-0.2-0.9-0.2-1.4l0-0.1l-0.2-0.2C203.7,209.8,204,210.5,204,210.9z"/>
					<path class="st0" d="M203.7,212.4c0.1-0.1,0.1,0.3,0-0.3c0,0,0,0,0,0.1C203.7,212.2,203.7,212.3,203.7,212.4z"/>
					<path class="st0" d="M203.7,212.2C203.7,211.9,203.7,212.4,203.7,212.2L203.7,212.2z"/>
					<path class="st0" d="M203.9,213.4l-0.1-0.3c-0.1,0.1,0,0.4-0.1,0.3C203.8,213.8,203.8,213.7,203.9,213.4z"/>
					<path class="st0" d="M204.2,213.7l-0.1-0.2C204.1,213.6,204.1,213.6,204.2,213.7z"/>
					<path class="st0" d="M204,213.2l0.1,0.4c0-0.1,0.1-0.1-0.1-0.2C204.1,213.4,204.1,213.3,204,213.2z"/>
					<path class="st0" d="M204,212.9c0-0.2,0-0.5,0.2-0.2C204,212.1,203.9,212.2,204,212.9z"/>
					<path class="st0" d="M204.3,211l0-0.3l-0.1-0.2C204.2,210.6,204.2,211,204.3,211z"/>
					<path class="st0" d="M204,215.8c0.1,0,0.2-0.2,0.3-0.2l-0.1-0.2C204.1,215.4,204.1,215.7,204,215.8z"/>
					<path class="st0" d="M204.3,215.5l0.2,0.4C204.5,215.5,204.4,215.5,204.3,215.5z"/>
					<path class="st0" d="M204.5,213.7c-0.1-0.2-0.2-0.4-0.3-0.6c0.1,0.2,0.2,0.5,0.4,0.7L204.5,213.7z"/>
					<polygon class="st0" points="204.2,217.3 203.9,217.1 204.3,217.5 					"/>
					<path class="st0" d="M204.3,218.3c-0.2-0.1-0.3,0.3-0.4,0.2c0.1,0.3,0.2,0.5,0.4,0.6C204.2,218.9,204.2,218.7,204.3,218.3z"/>
					<path class="st0" d="M204.5,219.4c-0.1-0.1-0.2-0.2-0.3-0.3C204.3,219.3,204.4,219.4,204.5,219.4z"/>
					<path class="st0" d="M204.5,216.6c0,0-0.2,0.1-0.2,0.4l0.2-0.2C204.6,216.7,204.6,216.6,204.5,216.6z"/>
					<path class="st0" d="M204.6,216.7L204.6,216.7c0,0.2,0,0.3,0,0.4C204.6,217,204.6,216.9,204.6,216.7z"/>
					<path class="st0" d="M204.5,216.5L204.5,216.5C204.6,216.6,204.6,216.5,204.5,216.5z"/>
					<path class="st0" d="M204.5,214.8c0.1,0.2,0.4,0.7,0.5,0.1C204.8,214.8,204.8,215.1,204.5,214.8z"/>
					<path class="st0" d="M204.8,216.3l0-0.4c-0.1,0-0.1,0.1-0.2,0L204.8,216.3z"/>
					<polygon class="st0" points="204.9,216.5 204.8,216.3 204.8,216.4 					"/>
					<path class="st0" d="M204.7,218.6c0.1,0.2,0.2,0.3,0.2,0.6c0-0.3,0-0.5,0-0.8C204.9,218.4,204.7,218.4,204.7,218.6z"/>
					<path class="st0" d="M204.7,217.7L204.7,217.7C204.7,217.7,204.7,217.7,204.7,217.7z"/>
					<polygon class="st0" points="205.3,221.4 205.4,221.4 205.3,221.4 					"/>
					<path class="st0" d="M205,218.4c0-0.2-0.1-0.3-0.2-0.4C204.9,218.1,204.9,218.3,205,218.4C205,218.4,205,218.4,205,218.4z"/>
					<path class="st0" d="M204.8,220c0.1-0.1,0.1-0.2,0.1-0.4C204.8,219.8,204.7,220,204.8,220z"/>
					<path class="st0" d="M204.6,217.8L204.6,217.8C204.6,217.9,204.6,217.9,204.6,217.8z"/>
					<path class="st0" d="M204.6,217.8c0.1,0.1,0.1,0.1,0.2,0.2C204.8,217.9,204.8,217.8,204.6,217.8
						C204.7,217.8,204.7,217.8,204.6,217.8z"/>
					<path class="st0" d="M207.7,221.5c-0.3,0.1-0.8-0.3-0.5-0.8c-0.3-0.3-1.3,0.2-1.8,0.7c0.1,0,0.3-0.1,0.5,0.3
						c0.2-0.2,0.2-1,0.6-0.8c0.3,0.5,0,0.5-0.1,0.8c0.4-0.3,0.8,0.5,1.4,0.2l-0.4-0.4C207.5,221.5,207.7,221.6,207.7,221.5z"/>
					<path class="st0" d="M205.3,220.6l-0.1-0.2c0,0.2-0.1,0.4-0.3,0.7c0.2,0.2,0.3,0.3,0.4,0.3L205.3,220.6L205.3,220.6z"/>
					<path class="st0" d="M205.1,219.6c0.3,0.1,0.5,0.4,0.8,0.1c-0.1-0.5-0.3-0.3-0.5-0.5C205.6,220,205.2,219,205.1,219.6
						c0-0.2-0.1-0.3-0.1-0.4c0,0.2,0,0.3-0.1,0.5l0,0l0,0l0,0c0,0,0.1-0.1,0,0l0,0C205,219.6,205,219.6,205.1,219.6
						c0,0.3-0.1,0.1-0.1,0c0,0,0,0,0,0l0,0l0.3,0.8C205.2,220.2,205.2,220,205.1,219.6z"/>
					<path class="st0" d="M205.6,215.2C205.6,215.2,205.5,215.2,205.6,215.2C205.6,215.3,205.6,215.3,205.6,215.2z"/>
					<path class="st0" d="M205.5,215.6c0,0-0.1-0.1-0.2-0.3c0-0.2,0.1,0,0.2-0.1c-0.1-0.1-0.3-0.4-0.3,0l0,0c0,0.3-0.2,0.8-0.2,0.8
						C205.2,216,205.4,215.8,205.5,215.6z"/>
					<path class="st0" d="M205.5,217.6l0.3,0.6l0.2-0.4l-0.1,0.1C205.7,217.5,205.6,217.6,205.5,217.6z"/>
					<polygon class="st0" points="205.1,221.6 204.8,221.6 205.3,221.8 					"/>
					<polygon class="st0" points="205.3,222.5 205,222.5 205.2,222.7 					"/>
					<path class="st0" d="M228.9,268.2l0.5,0.1C229.2,268.3,229,268.2,228.9,268.2z"/>
					<path class="st0" d="M228.4,266.8l-0.7,0.1C228.1,266.9,228.4,266.9,228.4,266.8z"/>
					<path class="st0" d="M208.4,244.3c-0.7,0.5-1.8,1.1-0.9,0.9l0.8-0.3C208.2,244.7,208.2,244.5,208.4,244.3z"/>
					<path class="st0" d="M217.5,257.4c0.1-0.1,0.2-0.1,0.3-0.2c-0.4,0-0.8,0.1-1.2,0.1C217,257.4,217.2,257.4,217.5,257.4z"/>
					<path class="st0" d="M222.5,256.3l-0.6,0.6C222.1,256.7,222.3,256.5,222.5,256.3z"/>
					<path class="st0" d="M233.7,275.2l1.8-0.2C235.3,274.6,234.5,275,233.7,275.2z"/>
					<path class="st0" d="M206.8,231.5c-0.2,0.3-0.3,0.5-0.3,0.7C206.8,231.9,207.3,231.5,206.8,231.5z"/>
					<path class="st0" d="M213.2,271.9c0.3,0.1,0.6,0,0.9-0.1C213.8,271.8,213.5,271.8,213.2,271.9z"/>
					<path class="st0" d="M206.6,233c0.1-0.1,0.1-0.1,0.1-0.2c-0.1-0.2-0.2-0.3-0.2-0.6C206.3,232.6,206.2,232.9,206.6,233z"/>
					<path class="st0" d="M243.6,302.5c-0.1,0-0.1,0.1-0.2,0.1C243.7,302.5,243.7,302.5,243.6,302.5z"/>
					<path class="st0" d="M222.1,317.1c-0.2,0-0.2-0.2-0.2-0.3C221.7,317,221.7,317.1,222.1,317.1z"/>
					<path class="st0" d="M205.6,226.1C205.5,225.9,205.5,226.1,205.6,226.1L205.6,226.1z"/>
					<path class="st0" d="M207.2,224.7c0.1,0,0.1,0,0.2,0C207.3,224.7,207.2,224.7,207.2,224.7z"/>
					<path class="st0" d="M210.9,233.8L210.9,233.8C211,233.7,210.9,233.7,210.9,233.8z"/>
					<path class="st0" d="M205.8,225.8c0,0.1-0.1,0.2-0.1,0.3C205.7,226,205.7,225.9,205.8,225.8z"/>
					<path class="st0" d="M205.6,225.8c0-0.1,0-0.1,0-0.2C205.5,225.7,205.5,225.7,205.6,225.8z"/>
					<path class="st0" d="M205.7,226.4c0-0.1,0-0.2,0-0.3c0,0,0,0.1-0.1,0.1C205.6,226.1,205.6,226.2,205.7,226.4z"/>
					<path class="st0" d="M232.4,289.5c-0.1,0-0.1,0.1-0.2,0.1C233.1,289.5,232.9,289.5,232.4,289.5z"/>
					<path class="st0" d="M219,246.5C219,246.5,219,246.5,219,246.5L219,246.5L219,246.5z"/>
					<path class="st0" d="M220,247c-1.3,0.1-1.2-0.1-1-0.4l-2.7,1L220,247z"/>
					<path class="st0" d="M230.7,271.4l1.2-0.8c2.5-0.1,1.9,0.5,3.7-0.4c-4.9,1.3-1.3-1.6-6.1-0.3l0.9-0.6c0,0.1,0.3,0,0.3,0.1
						c2-1.2-3.6,0.5-3.2-0.4c0.3-0.4,0.8-0.7,1.5-0.7l-1.4-0.3c0-0.2,0.8-0.4,0.8-0.2l-0.7-0.8l0.1,0c-0.8,0.1-1.9,0.1-2.5,0.1
						c0.6-0.4,0.5,0,1-0.2l-1.3-0.2c1.1-0.5,2.3-0.4,2.3,0c4.2-1.7-1.3-0.1,0.9-1.8l0.8,0.3c2.4-1,1.3-1.1,2.6-2
						c-0.7,0.3-3.4,2.1-4.7,1.9c0.3-0.2,0.3-0.5-0.6-0.5c1.5-0.4,1-0.6,0.8-0.9l2-0.5c-0.7-0.2-1.7,0.1-2.7,0.1c0-0.5,1.5-1,2.8-1.4
						c0-0.7-2.2,1.1-2.9,0.4c0.5-0.8-0.4-0.9-1.8-1.3c0.5-0.6,1.2-0.3,1.7-0.5l-1.6,0.1c0-0.1,0.5-0.2,0.7-0.2
						c-0.7-0.1-1.9,0.5-2.6,0.2c-2.1,0.4,2.6-1.8,0.1-1.7c0.5-0.3,1.1-0.2,1.8-0.5c-1.8-0.4-1.3-0.4-3.5-0.5l1-0.9
						c-1.2,0.8-2.9,0.7-4.3,0.6c-0.6,0.3-1.1,0.6-1.4,0.8l-1.1-0.5c0.3-0.2,0.9-0.3,1.6-0.3c-0.2,0-0.3,0-0.4,0
						c0.6-0.4,1.6-0.6,2.6-0.7c-0.3,0.2-0.7,0.4-1,0.6c1.1-0.1,2.3-0.3,3.3-0.6c-0.2,0-0.4,0-0.6-0.1c0.3,0,0.6-0.1,0.7-0.1
						c0.2-0.1-0.2,0-0.7,0l1.9-0.7l-0.8,0.2l0.8-1.3c-2.2-0.1-5.1,0-6.1-0.9c1.4-0.1,2.2-0.5,3.7-0.9c-1.6,0.7,1,0.6,0.9,1.3
						c0.1-0.3,0.9-0.5,1.2-0.5l-1.9-0.6c1.3-0.3,0.9-0.5,1.3-0.9c-2.4,0.9-1.9-0.3-2.8-0.5c0.8-0.3,1.7-0.4,1.7,0.2
						c1.6-1-3.1,0.1-1.8-0.9c0.1,0.1,0,0.2,0.4,0.1c-0.8-0.1-0.5-0.9,0.3-1l0.1,0.1c0-0.9-0.9-2.4-2.8-2c0.2-0.1,2.3-0.5,2.8-0.6
						l-6.8,0.3c1.6-0.3,5.3-1.8,6.4-1.4c0.2-0.3,0.3-0.6-0.4-0.8c-0.2,0.2-2.2,1-2.4,0.8c1.6-1,0.8-0.6,2.1-1.6
						c-0.3,0.3-2.8,0.7-2.8,0.4c0.4-0.1,2.4-0.7,2.7-0.6l-2.6-0.1c0.5,0.1,2-0.5,2.6-0.9c-0.4,0.2-0.2-0.7-0.5-0.8l-0.4,0.5
						c0-0.9-3.5,0-3.6-0.9c0.5,0,2.9-0.5,3-1c-1.2,0.1-5.6,0.6-6.5,0l0.6-0.3l-0.8-0.4c1.6,0,5.3,0.1,6.9,0.2
						c0.4-0.5,0.7-0.3,0.5-0.8c0.5-0.3,1,0,1.1,0.1l-0.1-1.2c-1.2,0.4-1.6-0.5-2.6-0.2c0.6,0.3,1.2,0.6,1.7,0.9
						c-1.2,0.4-3.8,0.3-3.8-0.6c0.4-0.3,2.2-0.4,2.6-0.6c-0.5,0-1.1-0.5-0.8-0.7l0.8,0.2c0.3-0.6-1.8-0.3-0.9-1.1
						c0-0.2,1.2-0.9,0.6-0.8c-1.1,0.6-5.1,1.8-6.1,1.9c0.1-0.1,1-1.3,1.5-1.7c0.9-0.6,2.5-0.2,3.2-0.7c-0.3,0.1-0.7,0-0.9,0
						c0.2-0.3,0.9-0.2,0.7-0.6c-1.1,0.2-0.2-0.9-1,0.1c-0.4-0.3,0.1-0.5-0.1-1c-0.6,0.3-2.4,0.2-2.8-0.2c0.3,0,0.6-0.2,0.7-0.3
						c-0.1-0.9,0.2-1.5-0.1-2.3c0.2-0.1,0.4-0.6,0.8-0.5c-0.2-0.1-0.5-0.1-0.6-0.3c0.6-0.7,0.3,0.5,1.1-0.1
						c-0.5,0.1-0.9-0.4-1.4-0.7c-0.8,0.3,0.1,0.8,0.5,1.1c-1.1,0.3-2.5,0-3.2-0.7c-0.4-0.6,0.6-0.5,0.4-0.6c-0.1-1.3-2-0.6-1.5-1.8
						c0.5-0.6,1.2-0.4,1.6-0.6c0.4,0.5-0.2,0.9-0.1,1.3l0.2-0.5c0.3,0.1,0.5,0.4,0.4,0.7c0.5-0.5-0.5-2.1-0.3-3.2
						c-0.2-0.1-0.5-0.4-0.7-0.2l0.2,0.3c-0.4,0.4-0.8-0.4-0.9,0c-0.4-0.3-1-0.7-0.8-1.3l0.6-0.3c-0.2,0.1-0.3,0.5-0.1,0.6
						c-0.3-0.2,0.6-1.1-0.2-1.2l-0.3,0.5c-0.4-0.3-1.1-0.7-1-1.3c-0.5,0.4,0.1,0.1-0.5,0.7c0.8-0.5,0.1,1.4,0.9,0.6
						c-0.7,0.6-0.2,0.8-0.9,1.4c0.2-0.1,0.4-0.3,0.3,0.2c0.1,0,0.1,0,0.2,0c0,0,0,0,0,0l0,0c0,0,0,0,0,0c0.1-0.1,0.2-0.2,0.3-0.3
						c0.5,0.1,0.6,0.8,0.9,1c-0.1,0.3-0.3,0-0.5,0.2l0.5,0.2c-0.5,0.2-0.7,0.9-1.1,0.4l0.1,0.6c-0.2,0.4-0.3,0.9,0,1.1
						c-0.1,0.3,0.7,0.5,0.2,0.4l0.5,0.8l-0.1,0c0,0.9,1.3,1.5,0.3,2.8c0.2,0.2,0.4,0.5,0.3,1l-0.5,0.2c0.2,0.3-0.4,1.3,0.2,1.3
						c-1.5,0.8-0.2,1.9-0.4,2.7l0.8-0.2c0,0.5,0.3,0.8,0.7,1.3l0.8-0.2c0.7,0.3-0.3,1.4-0.2,2.1c-0.3,0-0.3-0.2-0.1-0.4
						c-0.8,0.7-0.5,1.1,0,1.5c0.5,0.4,1,0.7,0.4,1.3c0.3,0.1,0.3,0.3,0.1,0.5c0,0,0,0-0.1,0c0,0,0,0.1,0,0.1
						c-0.1,0.1-0.3,0.3-0.4,0.4c0.2-0.1,0.4-0.3,0.4-0.4c0,0.2,0.2,0.4,0.4,0.5l-0.9,0.4c0,0,0,0,0,0c-0.3,0.3,0.5,0.1,1.2-0.3
						c0.2,0.1,0.4,0.1,0.6,0.2c-1.5,0.6,0.6,0.5-1,1.2c0.9-0.1,0.8,1,2.6,0.6c-0.2,0.1-0.3,0.2-0.4,0c-0.2,0.3-0.3,0.6,0.3,0.7
						l-1.3,0.5l1.9,0.1c-0.7,0.6-1.2,0.8-2.3,0.8c1.7,0.4,0.7,0.5,2.5,0.8l-0.9,0.2c0.1,0.2,1.4,0.3,0.7,0.7c-1.6,1,0.3,2.8-1.1,4.8
						c2.9-1.1-1.2,1,1.1,0.5c-0.7,0.3-1.1,0.6-1.7,0.5c0.8,0.6-1,1.4,1.1,1.4c-0.7,0.3-1.1,0.1-1.5,0.3c0.2,0,0.7,0.1,0.2,0.3
						c-0.4,0.2-0.6,0.1-1,0c0.2,0.7,2.5,0.2,4.7-0.3c-0.9,0.7-0.8,0.8,0.7,0.7c-0.7,0.3-1.4,0.8-1.7,0.4c0,0.3-0.8,1.9,1,1.4
						c-0.4,0.2-0.1,0.4,0.2,0.4c0,0.6-0.1,0.7,0.1,1.2l0.3-0.2c2.3-0.4,0.6,0.3,1,0.7l-0.2,0.1c-1.4,1.5,0.9,0.2-0.8,1.8l1.4-0.5
						c3.1-0.8-1.6,1.4-0.3,1.7l0.8-0.5c1.2,0-4.1,2.1-4.5,2.6c-0.3,0.2-0.5,0-0.7,0c-1.8,1.4,2-0.4,2.6,0.1
						c-1.1,0.4-2.7,0.6-2.9,1.1c-0.9,0.5,3.7,0.3,1.7,1.5c0.8-0.4,1.7-0.7,2.4-0.6c0.4,0.4-3.1,2.2-0.2,1.8
						c-0.2,0.1-0.5,0.2-0.7,0.3c0.8,0.2,1.4,0.8,3,0.6c-2.8,0.9-2,1.3-1.2,1.6c0.9,0.3,1.8,0.5-0.9,1.3l0.5,1l-0.6,0.1
						c-0.2,0.8,1.1,0.7,2.5,0.6c-0.3,0.3-0.9,0.3-1.2,0.4c-0.9,1.3-0.7,1.4,2.3,1.5l-1.8,0.6c1.2-0.1-2.7,2.3-0.3,2.7
						c-0.2,0.1-0.6,0.1-0.9,0.1c1.2,0.3,0,1.3-0.7,2.1c-0.7,0.8-0.8,1.4,2.9,0.6l2,0.2c0.4-1.1,3.2-0.7,4.4-1.5
						c0.5,0.3-2,1.6-2.5,1.2l0.4-0.2c-3.9,0.9-1.1,1.6-3.8,2.3c0.6,1.8-1.3,4.3-1.3,6.2l3.2-1.1l-0.1,0.7c-0.7,0.4-2.5,0.9-2.5,0.4
						c-1.8,0.7,1.7,0.3,2.4,0.1c-1.2,1.2-3.9,0.7-3.9,1l0.3,0.3l0.4-0.2c1.4-0.1,2.8-0.4,2.8,0.1c-0.6,0.5-2,0.7-2.1,0.9
						c-0.2,0.1-0.3,0.1-0.1,0.2l-0.2,0.9l2.6-1c1.4,0,0,0.8,2.9-0.4c-4.6,1.8-1.1,3.4-2.5,4.1c2.1-0.1,2.2,0.4,2,1.1
						c0.6-0.3,3.7-1.3,3.4-0.6c-6.6,1.6-2.6,1.7-7.3,3.4c3.1-1.2,1,1.2,5.4-0.6c-0.5,0.6-2.5,0.7-4,1.5c2.8,0.3-1.3,2.7-0.2,3.8
						c0.9-0.2,2.3-0.8,3.7-0.9l-4.5,1.9c0.5,0.1,5.4-1.2,2.2,0.1c0.8-0.3,1.9-0.7,2.2-0.6c-2,1.9-0.9,2.9-0.2,4
						c0.7,1.1,0.9,2.4-3.4,4.9c1.9-0.9,2.1-0.7,2.2-0.5c0.4-0.3,2.5-0.7,3.8-1.1l-3.6,2.1c3.8-0.8,0.5,1.1,4.1,0.2l-0.7-0.2
						c4.4-0.7,9.4-3.2,14.8-4.7c-2.5,0.4-0.8-0.4,0.6-1.1c1.4-0.8,2.5-1.5-1.1-0.9c1-0.5,1.8-0.3,3-0.8c-2.4,0.4-2.9,0.3-2.1-0.4
						l0.6-0.1c-1-1.1,1-2.2,1.9-4l-2.5,0.8c0.2-0.4,1-0.7,1.6-1c-4,0.7,0.1,0.9-4.3,1.8c5-1.8-0.7-2.1,5-4c-0.2-0.5-2.8,0.9-3,0.5
						l1.5-0.5l-2,0.4c0.2-0.4,2.1-1.1,3.4-1.4c-0.1,0.1,0.5,0.1,0.6,0.2c1.7-0.9-1.1-0.9-0.5-1.2l-0.8,0.7c-1.9-0.9-0.6-2.9-4.1-3.3
						l-1.1,0.4c-2.4-0.4,0.9-1.1-0.4-1.8l0.3,0c-1.2,0.1-1.8,0-1.8-0.3c1.4-0.1,2.3-1.2,3.8-1.2c-2.5-0.4-1.9,0-6.1,0.4l1.7-0.6
						c-1.7,0.2-2.5,0.4-3.1,0c1.7,0,2.6-1.1,4.7-1.1c3.4-2.1-4.4-0.5,0.9-2.5c-4.9,0.8-2.3,1.6-3.4,1.7c-1.5,0.7-3.7,0.6-3.3,0.1
						c0-0.4,5.9-2.3,5.4-3.1c0,0.1,0.4,0,0.4,0.1c1.1-0.6-1.8-0.2-0.1-1.1c-2.9,0.5,0-0.5-3.6,0.4l1.1,0.6c-1.1-0.2-5.4,0.5-3.6-0.8
						c0.7-0.1,1.7-0.2,2.3-0.2c1-0.5-0.8-0.2,0.2-0.7c3.5-0.9,1.1,0.7,4,0.5c1.4-0.6-2.9-0.2,1-1c-5,1,0.3-1-3.6-0.6l2.1-0.5
						c-0.4,0-1.4,0.1-1.4-0.1l2.8-0.4c-2.5,0.2,1.6-1.4,0.2-1.5c0.5,0.9-2.4,0.9-3.7,1.7c-3.2-0.4,5.1-2.1,3.6-3.1
						c0.4,0.1-0.9,1-2,1c0.3-0.4,1-0.9,1.9-1.3c-0.8-0.7-2,0.7-3.4,0.7c2.3-1-1.2-0.1-2.1-0.3l2-0.6c0.9-1.3-4.3,0.9-3-0.4l2.9-0.4
						l-0.9-0.3l2.3-0.5c-1.9,0-1.5-0.3-1.1-1c-1.3,0.5-3.6,0.9-3.8,0.5c1-0.6,1.9-0.3,1.4-0.9c1.3-0.2,2.8-0.5,1.2,0.3
						c0.6-0.1,1.3-0.2,1.9-0.3c1.2-0.7,0-0.9-0.1-1.1c0,0.1-0.1,0.2-0.3,0.4l-3-0.2c0.7-0.3,1.3-0.4,1.9-0.4c-0.3-0.1-1.2,0-1.5-0.2
						c1.6-0.4,3.1-0.8,4-0.6l-2.1-0.4c0.6-0.2,1.6-0.9,2.2-1c0.7-0.7-3.4-0.3-2.5-1.3c-0.3,0-0.6,0.1-0.9,0c0.1-0.7,1.6-1.7-0.6-1.8
						l2.4-1.1c-0.8-0.4-3,1.4-4.4,0.8c-1.1-0.4,2.1-0.8,2.7-1.3c-1.4,0-4.2,0.2-2.4-0.9C230.7,271,230.4,271.2,230.7,271.4z
						 M226.9,265c0.4,0,1.5,0,0.6,0.4C225.6,265.7,226.5,265.4,226.9,265z M219.7,255.7c0.5,0,0.3,0.2-0.1,0.5
						C219.4,256.1,219.4,256,219.7,255.7z M206.3,228.1C206.3,228.1,206.3,228.1,206.3,228.1C206.2,228.4,206.2,228.3,206.3,228.1z
						 M206.5,227.3c-0.1,0-0.2,0-0.2,0c0.1,0,0.2,0.1,0.2,0.3C206.5,227.6,206.6,227.5,206.5,227.3z M218.2,295.5l0.6-0.3
						C219.5,295.3,218.9,295.4,218.2,295.5z"/>
					<path class="st0" d="M221.9,256.4c-0.2,0.1-0.4,0.2-0.7,0.3C221.4,256.6,221.7,256.6,221.9,256.4z"/>
					<path class="st0" d="M233.4,275.2C233.3,275.2,233.3,275.2,233.4,275.2c0.1,0,0.2,0,0.3,0L233.4,275.2z"/>
					<path class="st0" d="M214.6,235.4c-0.1,0.2-0.2,0.3-0.3,0.3C214.5,235.7,214.6,235.6,214.6,235.4z"/>
					<path class="st0" d="M205.1,224.2l0.2,0.4c0-0.2,0-0.3,0.1-0.4C205.3,224.2,205.2,224.3,205.1,224.2z"/>
					<path class="st0" d="M207,220c-0.1,0,0-0.1-0.1-0.2l-0.2,0.1C206.8,220.1,207,220.3,207,220z"/>
					<path class="st0" d="M206.6,223.4c0.4-0.1,0.2-0.4,0.1-0.6c0,0,0,0,0,0C206.1,222.9,206.3,223.1,206.6,223.4z"/>
					<path class="st0" d="M206.6,222.7c0-0.1-0.1-0.2-0.1-0.3C206.3,222.5,206.5,222.6,206.6,222.7z"/>
					<path class="st0" d="M206,226.6c0.1-0.2-0.6,0.1-0.4-0.1C205.1,226.6,206.4,227.3,206,226.6z"/>
					<polygon class="st0" points="207.7,222.8 207.3,223.1 207.7,223.1 					"/>
					<path class="st0" d="M208,225.1l0-0.5c-0.1,0-0.1,0-0.2-0.1C207.8,224.9,207.8,225.2,208,225.1z"/>
					<path class="st0" d="M207.8,224.6c0-0.1-0.1-0.3-0.2-0.3C207.6,224.3,207.7,224.5,207.8,224.6z"/>
					<polygon class="st0" points="208,223.4 208,223.6 208,223.9 					"/>
					<path class="st0" d="M209.1,229.9l0.3,0.4c0.2,0,0.3-0.2,0.2-0.3C209.4,230,209.3,229.8,209.1,229.9z"/>
					<path class="st0" d="M210.3,228c-0.1,0.2-0.2,0.2-0.4,0.3l0.8-0.2L210.3,228z"/>
					<path class="st0" d="M211,229.4c0.2,0,0.9,0.5,0.6-0.1C211.3,229.3,211,228.9,211,229.4z"/>
					<polygon class="st0" points="212.1,236.9 212,236.8 210.4,237.3 					"/>
					<path class="st0" d="M218.8,242c0.2-0.7-1.3,0.2-0.9-0.5c-0.5,0-0.3,0.5-0.8,0.5C217.7,242.2,217.5,242.5,218.8,242z"/>
					<path class="st0" d="M217.1,242c-0.1,0-0.2-0.1-0.4-0.1C216.9,242,217,242,217.1,242z"/>
					<polygon class="st0" points="219.2,319.4 218,320.1 219.9,319.3 					"/>
					<path class="st0" d="M223.6,318.9l-3.7,1.1l3.4-0.7C223.2,319.3,222.8,319.2,223.6,318.9z"/>
					<path class="st0" d="M230.6,262.9l-0.5,0.1c-0.5,0.2-0.5,0.3-0.5,0.5L230.6,262.9z"/>
					<polygon class="st0" points="231.2,268.1 231.2,268 229.3,268.7 					"/>
					<path class="st0" d="M235.7,271.3c0-0.2-0.6-0.2-0.5-0.4C235.8,271.2,233.1,272.1,235.7,271.3z"/>
				</g>
			</g>
		</g>
	</g>
</g>
<g>
	<g>
		<g>
			<g>
				<path class="st0" d="M356.6,254.7c0,0,0.1,0,0.1,0C356.5,254.7,356.6,254.7,356.6,254.7z"/>
				<polygon class="st0" points="354.4,254.7 354.4,254.7 354.1,254.8 				"/>
				<path class="st0" d="M352.3,254.7c0.2,0.2,0.8,0,1.1,0l0.1,0l0.2-0.1C353.2,254.7,352.6,254.8,352.3,254.7z"/>
				<path class="st0" d="M351.1,254.2c0.1,0.1-0.2,0.1,0.3,0.1c0,0,0,0,0,0C351.3,254.2,351.2,254.2,351.1,254.2z"/>
				<path class="st0" d="M351.3,254.2C351.6,254.2,351.2,254.1,351.3,254.2L351.3,254.2z"/>
				<path class="st0" d="M350.3,254.2l0.3-0.1c-0.1-0.1-0.3-0.1-0.2-0.2C350.1,254,350.1,254,350.3,254.2z"/>
				<path class="st0" d="M350.1,254.4l0.1,0C350.2,254.3,350.1,254.3,350.1,254.4z"/>
				<path class="st0" d="M350.5,254.3l-0.3,0.1c0,0.1,0.1,0.1,0.1,0C350.3,254.4,350.4,254.3,350.5,254.3z"/>
				<path class="st0" d="M350.7,254.3c0.2,0.1,0.4,0.1,0.1,0.2C351.4,254.5,351.3,254.3,350.7,254.3z"/>
				<path class="st0" d="M352.2,254.9l0.2,0l0.2-0.1C352.5,255,352.2,254.9,352.2,254.9z"/>
				<path class="st0" d="M348.5,253.8c0,0.1,0.1,0.2,0.2,0.3l0.2-0.1C348.7,254,348.5,253.9,348.5,253.8z"/>
				<path class="st0" d="M348.6,254.1l-0.3,0.1C348.6,254.3,348.7,254.2,348.6,254.1z"/>
				<path class="st0" d="M350.1,254.7c0.2-0.1,0.3-0.2,0.5-0.2c-0.2,0.1-0.4,0.1-0.6,0.2L350.1,254.7z"/>
				<polygon class="st0" points="347.2,253.7 347.4,253.5 347.1,253.8 				"/>
				<path class="st0" d="M346.4,253.6c0.1-0.2-0.2-0.4-0.1-0.5c-0.2,0-0.4,0.1-0.6,0.3C346,253.4,346.2,253.4,346.4,253.6z"/>
				<path class="st0" d="M345.5,253.6c0.1,0,0.2-0.1,0.3-0.2C345.7,253.5,345.6,253.5,345.5,253.6z"/>
				<path class="st0" d="M347.8,254.2c0-0.1-0.1-0.2-0.3-0.3l0.2,0.3C347.7,254.2,347.7,254.2,347.8,254.2z"/>
				<path class="st0" d="M347.7,254.2L347.7,254.2c-0.1,0-0.2,0-0.3,0C347.4,254.1,347.5,254.2,347.7,254.2z"/>
				<path class="st0" d="M347.8,254.2L347.8,254.2C347.8,254.2,347.8,254.2,347.8,254.2z"/>
				<path class="st0" d="M349.2,254.5c-0.2,0.1-0.6,0.2-0.2,0.4C349.2,254.8,348.9,254.7,349.2,254.5z"/>
				<path class="st0" d="M348,254.5l0.3,0.1c0-0.1-0.1-0.2,0-0.2L348,254.5z"/>
				<polygon class="st0" points="347.8,254.6 348,254.5 347.9,254.5 				"/>
				<path class="st0" d="M346.1,254c-0.1,0.1-0.3,0.1-0.5,0.1c0.2,0.1,0.4,0.1,0.6,0.1C346.3,254.1,346.4,254,346.1,254z"/>
				<path class="st0" d="M346.9,254.1L346.9,254.1C346.9,254.1,346.9,254.1,346.9,254.1z"/>
				<path class="st0" d="M343.9,254C343.9,254,343.9,254,343.9,254L343.9,254L343.9,254z"/>
				<path class="st0" d="M346.3,254.3c0.2,0.1,0.2,0,0.3-0.1C346.5,254.2,346.4,254.2,346.3,254.3
					C346.3,254.3,346.3,254.3,346.3,254.3z"/>
				<path class="st0" d="M345,253.7c0.1,0.1,0.2,0.1,0.3,0.2C345.2,253.8,345.1,253.7,345,253.7z"/>
				<path class="st0" d="M346.8,254L346.8,254C346.8,254,346.8,254,346.8,254z"/>
				<path class="st0" d="M346.8,254c-0.1,0-0.1,0.1-0.2,0.2C346.7,254.2,346.8,254.1,346.8,254C346.8,254.1,346.8,254.1,346.8,254z"
					/>
				<path class="st0" d="M343.6,256.4c0-0.4,0.3-0.7,0.7-0.4c0.3-0.3,0-1.3-0.4-1.9c0,0.1,0,0.3-0.3,0.5c0.1,0.2,0.8,0.4,0.5,0.7
					c-0.4,0.2-0.4-0.1-0.6-0.3c0.2,0.4-0.5,0.6-0.3,1.3l0.4-0.3C343.6,256.1,343.4,256.3,343.6,256.4z"/>
				<path class="st0" d="M344.6,254.1l0.1,0c-0.2-0.1-0.3-0.2-0.5-0.5c-0.2,0.1-0.3,0.3-0.3,0.4L344.6,254.1L344.6,254.1z"/>
				<path class="st0" d="M345.3,254.1c-0.1,0.3-0.4,0.5-0.2,0.8c0.4,0,0.3-0.3,0.5-0.4C345,254.6,345.8,254.4,345.3,254.1
					c0.1,0,0.2,0,0.4,0c-0.1,0-0.2-0.1-0.4-0.2l0,0l0,0l0,0c0,0,0,0.1,0,0l0,0C345.3,254.1,345.3,254.1,345.3,254.1
					c-0.2-0.1,0-0.1,0-0.1l0,0l0,0l-0.6,0.1C344.8,254.2,345,254.2,345.3,254.1z"/>
				<path class="st0" d="M348.7,255.4C348.7,255.4,348.7,255.4,348.7,255.4C348.7,255.4,348.7,255.4,348.7,255.4z"/>
				<path class="st0" d="M348.5,255.3c0,0,0.1-0.1,0.2-0.1c0.1,0.1,0,0.1,0,0.2c0.1-0.1,0.3-0.2,0-0.3l0,0c-0.3-0.1-0.6-0.4-0.6-0.4
					C348.2,255,348.3,255.1,348.5,255.3z"/>
				<path class="st0" d="M346.9,254.9l-0.5,0.2l0.3,0.2l0-0.1C346.9,255.2,346.9,255,346.9,254.9z"/>
				<polygon class="st0" points="343.8,253.8 343.8,253.4 343.6,254 				"/>
				<polygon class="st0" points="343.1,253.8 343.1,253.5 342.9,253.7 				"/>
				<path class="st0" d="M304.4,268.3l-0.1,0.4C304.4,268.6,304.4,268.4,304.4,268.3z"/>
				<path class="st0" d="M305.6,268.1l0-0.7C305.5,267.8,305.5,268.1,305.6,268.1z"/>
				<path class="st0" d="M325.5,252.7c-0.3-0.8-0.7-2-0.6-1l0.2,0.9C325.3,252.4,325.4,252.5,325.5,252.7z"/>
				<path class="st0" d="M314.2,259.2c0,0.1,0.1,0.2,0.1,0.4c0-0.4,0-0.8,0-1.2C314.3,258.7,314.3,258.9,314.2,259.2z"/>
				<path class="st0" d="M314.6,264.3l-0.4-0.7C314.3,263.8,314.4,264.1,314.6,264.3z"/>
				<path class="st0" d="M298.4,271.7l0,1.8C298.7,273.4,298.5,272.6,298.4,271.7z"/>
				<path class="st0" d="M335.8,253.5c-0.2-0.2-0.4-0.4-0.5-0.4C335.5,253.5,335.8,254,335.8,253.5z"/>
				<path class="st0" d="M303.3,252.2c-0.1,0.3-0.1,0.6,0,0.9C303.3,252.9,303.4,252.6,303.3,252.2z"/>
				<path class="st0" d="M334.6,253.1c0,0.1,0.1,0.1,0.1,0.2c0.1-0.1,0.3-0.2,0.5-0.1C335,252.9,334.8,252.7,334.6,253.1z"/>
				<path class="st0" d="M275.9,276.3c0-0.1-0.1-0.1-0.1-0.3C275.8,276.3,275.8,276.3,275.9,276.3z"/>
				<path class="st0" d="M266.8,252.4c0.1-0.2,0.2-0.2,0.3-0.2C267,252.1,266.9,252.1,266.8,252.4z"/>
				<path class="st0" d="M340.2,253.4C340.3,253.4,340.2,253.4,340.2,253.4L340.2,253.4z"/>
				<path class="st0" d="M341.1,255.2c0,0.1,0,0.1,0,0.2C341.1,255.3,341.1,255.3,341.1,255.2z"/>
				<path class="st0" d="M333.5,257.1C333.5,257.1,333.5,257.1,333.5,257.1C333.6,257.2,333.6,257.2,333.5,257.1z"/>
				<path class="st0" d="M340.4,253.6c-0.1-0.1-0.1-0.1-0.2-0.2C340.3,253.5,340.3,253.6,340.4,253.6z"/>
				<path class="st0" d="M340.4,253.4c0.1,0,0.1,0,0.1,0.1C340.5,253.4,340.5,253.4,340.4,253.4z"/>
				<path class="st0" d="M340,253.4c0.1,0,0.2,0,0.3,0.1c0,0,0-0.1,0-0.1C340.1,253.4,340.1,253.4,340,253.4z"/>
				<path class="st0" d="M287.3,267.7c0-0.1,0-0.1-0.1-0.2C287.2,268.4,287.3,268.3,287.3,267.7z"/>
				<path class="st0" d="M322.6,262.7C322.6,262.7,322.6,262.7,322.6,262.7L322.6,262.7L322.6,262.7z"/>
				<path class="st0" d="M322.1,263.6c0.1-1.3,0.2-1.2,0.4-1l-0.5-2.8L322.1,263.6z"/>
				<path class="st0" d="M301.8,269.5l0.5,1.3c-0.2,2.5-0.6,1.8-0.1,3.7c-0.4-5,1.4-1,0.9-5.9l0.3,1c-0.1,0-0.1,0.3-0.1,0.2
					c0.7,2.2,0-3.6,0.7-3c0.3,0.3,0.5,1,0.4,1.6l0.4-1.3c0.1,0.1,0.2,0.9,0,0.8l0.7-0.6l0,0.1c0-0.8,0.2-1.9,0.2-2.4
					c0.3,0.6,0,0.5,0.1,1.1l0.3-1.2c0.3,1.1,0.1,2.4-0.2,2.3c0.8,4.5,0.2-1.2,1.3,1.2l-0.3,0.7c0.5,2.5,0.7,1.5,1.3,2.9
					c-0.2-0.8-1.3-3.7-0.9-5c0.2,0.3,0.3,0.4,0.5-0.5c0.2,1.6,0.3,1.1,0.6,1l0.2,2.1c0.2-0.7,0.1-1.7,0.2-2.7c0.4,0.1,0.6,1.7,0.8,3
					c0.6,0.2-0.6-2.4,0-3c0.5,0.7,0.8-0.3,1.2-1.6c0.4,0.6,0.1,1.2,0.2,1.7l0.1-1.6c0.1,0,0.1,0.5,0.1,0.7c0.2-0.7-0.2-1.9,0.2-2.5
					c-0.1-2.1,1.1,2.9,1.3,0.4c0.2,0.5,0.1,1.2,0.2,1.9c0.5-1.7,0.4-1.3,0.8-3.4l0.6,1.1c-0.5-1.3-0.2-3,0-4.3
					c-0.2-0.6-0.3-1.2-0.4-1.5l0.5-1c0.1,0.3,0.1,0.9,0.1,1.7c0-0.2,0-0.3,0.1-0.4c0.3,0.6,0.3,1.7,0.2,2.7
					c-0.1-0.3-0.2-0.7-0.3-1.1c0,1.1-0.1,2.3,0.1,3.4c0-0.2,0.1-0.4,0.1-0.5c0,0.3,0,0.6,0,0.7c0,0.2,0.1-0.2,0.1-0.7l0.3,2l0-0.8
					l0.9,1.1c0.4-2.1,0.6-5,1.4-5.8c-0.1,1.4,0.2,2.2,0.3,3.8c-0.4-1.7-0.6,0.9-1.1,0.6c0.3,0.1,0.3,0.9,0.2,1.2l0.7-1.8
					c0.1,1.3,0.3,1,0.5,1.4c-0.4-2.6,0.4-1.9,0.7-2.7c0.1,0.8,0.1,1.7-0.3,1.6c0.6,1.8,0.3-3.1,0.9-1.6c-0.1,0-0.2-0.1-0.2,0.4
					c0.2-0.8,0.8-0.3,0.7,0.4l-0.1,0c0.7,0.2,2-0.4,1.9-2.4c0,0.3,0.2,2.4,0.2,2.8l0.5-6.7c0.1,1.7,0.8,5.5,0.4,6.6
					c0.2,0.2,0.4,0.4,0.7-0.2c-0.1-0.2-0.5-2.3-0.4-2.5c0.6,1.7,0.4,0.9,1,2.3c-0.2-0.3-0.3-2.9,0-2.8c0,0.4,0.3,2.4,0.2,2.7
					l0.4-2.5c-0.1,0.5,0.2,2,0.4,2.7c-0.1-0.5,0.5-0.1,0.7-0.4l-0.3-0.5c0.7,0.2,0.4-3.4,1.1-3.3c0,0.5,0.1,2.9,0.5,3.1
					c0-1.2,0.2-5.6,0.7-6.4l0.2,0.6l0.4-0.7c-0.1,1.6-0.6,5.2-1,6.7c0.3,0.4,0.1,0.7,0.5,0.6c0.2,0.6-0.1,1-0.2,1l1,0.1
					c-0.2-1.3,0.6-1.5,0.4-2.5c-0.3,0.5-0.6,1-0.9,1.6c-0.2-1.3,0.2-3.8,0.9-3.6c0.2,0.5,0.1,2.2,0.1,2.6c0-0.5,0.5-0.9,0.6-0.7
					l-0.2,0.7c0.4,0.4,0.4-1.7,1-0.7c0.2,0,0.6,1.4,0.6,0.7c-0.4-1.2-0.8-5.4-0.8-6.4c0.1,0.1,0.9,1.2,1.2,1.8
					c0.3,1-0.1,2.4,0.2,3.3c0-0.3,0.1-0.7,0.1-0.8c0.2,0.2,0,1,0.4,0.7c-0.1-1.1,0.7,0,0.1-1c0.3-0.4,0.4,0.2,0.8,0
					c-0.2-0.7,0.1-2.4,0.4-2.7c0,0.3,0.1,0.6,0.2,0.8c0.7,0,1.1,0.4,1.8,0.4c0.1,0.2,0.4,0.5,0.3,0.9c0.1-0.2,0.1-0.5,0.3-0.6
					c0.5,0.7-0.4,0.2,0,1.1c0-0.6,0.4-0.8,0.7-1.2c-0.2-0.8-0.7-0.1-0.9,0.3c-0.1-1.2,0.3-2.5,0.9-3c0.5-0.3,0.3,0.7,0.4,0.5
					c1,0.1,0.7-1.8,1.6-1.1c0.4,0.6,0.1,1.3,0.3,1.7c-0.4,0.3-0.7-0.4-1-0.3l0.4,0.3c-0.1,0.2-0.4,0.4-0.6,0.2
					c0.3,0.6,1.7,0,2.6,0.4c0.1-0.2,0.3-0.4,0.2-0.7l-0.2,0.1c-0.3-0.5,0.4-0.7,0.1-0.9c0.3-0.3,0.6-0.8,1.1-0.6l0.1,0.6
					c0-0.2-0.3-0.4-0.5-0.2c0.2-0.3,0.8,0.8,0.9,0l-0.4-0.4c0.3-0.3,0.7-0.9,1.1-0.7c-0.2-0.6-0.1,0.1-0.5-0.6
					c0.3,0.8-1.1-0.1-0.6,0.8c-0.4-0.8-0.6-0.4-1-1.1c0,0.2,0.2,0.4-0.2,0.3c0,0.1,0,0.1-0.1,0.2c0,0,0,0,0,0l0,0c0,0,0,0,0,0
					c0.1,0.1,0.2,0.2,0.2,0.3c-0.1,0.5-0.7,0.5-0.9,0.7c-0.2-0.1,0.1-0.3-0.1-0.5l-0.2,0.4c-0.1-0.5-0.6-0.9-0.2-1.1l-0.4-0.1
					c-0.3-0.3-0.7-0.5-0.9-0.3c-0.2-0.1-0.5,0.6-0.3,0.2l-0.7,0.3l0-0.1c-0.7-0.1-1.3,0.9-2.2-0.2c-0.2,0.1-0.4,0.3-0.8,0.1
					l-0.1-0.6c-0.3,0.2-1-0.7-1-0.1c-0.5-1.7-1.5-0.5-2-0.9l0.1,0.8c-0.4-0.1-0.7,0.1-1.1,0.5l0.1,0.8c-0.3,0.6-1-0.6-1.7-0.5
					c0-0.3,0.2-0.2,0.3,0c-0.5-0.9-0.8-0.6-1.1-0.2c-0.3,0.4-0.7,0.9-1.1,0.1c-0.1,0.3-0.3,0.2-0.4,0c0,0,0,0,0,0c0,0,0,0-0.1,0
					c-0.1-0.2-0.2-0.3-0.3-0.5c0.1,0.2,0.2,0.4,0.2,0.5c-0.1,0-0.3,0.1-0.5,0.3l-0.2-1c0,0,0,0,0,0c-0.2-0.4-0.1,0.5,0.1,1.2
					c-0.1,0.2-0.1,0.4-0.2,0.6c-0.3-1.6-0.4,0.5-0.8-1.2c0,0.8-0.9,0.6-0.8,2.5c0-0.2-0.1-0.4,0-0.4c-0.2-0.2-0.5-0.4-0.6,0.1
					l-0.2-1.4l-0.3,1.8c-0.4-0.8-0.5-1.3-0.4-2.4c-0.5,1.6-0.5,0.6-0.9,2.3l-0.1-0.9c-0.2,0-0.4,1.3-0.6,0.5c-0.6-1.8-2.3-0.2-3.6-2
					c0.5,3-0.7-1.4-0.5,1c-0.1-0.7-0.3-1.1-0.2-1.8c-0.5,0.7-1-1.2-1.2,0.8c-0.1-0.8,0-1.1-0.1-1.5c0,0.2-0.1,0.6-0.2,0.2
					c-0.1-0.5,0-0.6,0.1-0.9c-0.6,0.1-0.4,2.4-0.3,4.6c-0.4-1-0.6-0.9-0.6,0.6c-0.2-0.7-0.4-1.5-0.1-1.8c-0.2-0.1-1.4-1.1-1.2,0.7
					c-0.1-0.5-0.3-0.1-0.3,0.1c-0.5-0.1-0.5-0.3-1-0.1l0.2,0.3c0,2.3-0.3,0.5-0.7,0.8l0-0.2c-1-1.7-0.3,0.8-1.3-1.1l0.2,1.5
					c0.2,3.2-0.9-1.9-1.3-0.6l0.3,0.9c-0.2,1.2-1.2-4.5-1.5-4.9c-0.1-0.3,0-0.5,0.1-0.7c-0.9-2,0.1,2-0.4,2.5
					c-0.2-1.1-0.2-2.8-0.5-3c-0.3-0.9-0.7,3.6-1.4,1.4c0.2,0.9,0.4,1.8,0.2,2.4c-0.3,0.3-1.4-3.4-1.4-0.6c-0.1-0.2-0.1-0.5-0.1-0.7
					c-0.2,0.7-0.8,1.2-0.8,2.8c-0.4-2.9-0.8-2.2-1.1-1.5c-0.3,0.8-0.6,1.7-0.9-1.1l-0.9,0.3l0-0.6c-0.6-0.4-0.7,1-0.7,2.4
					c-0.2-0.4-0.1-0.9-0.1-1.2c-0.9-1.2-1-1-1.4,2l-0.3-1.9c-0.1,1.1-1.5-3.1-2.1-0.8c0-0.2,0-0.6,0-0.9c-0.3,1.2-1-0.2-1.6-1.1
					c-0.6-0.8-1-1-0.8,2.8l-0.4,1.9c0.8,0.6,0.2,3.3,0.7,4.6c-0.3,0.5-1-2.2-0.7-2.7l0.1,0.4c-0.3-4-1.1-1.4-1.4-4.1
					c-1.5,0.2-3.2-2.1-4.7-2.4l0.5,3.4l-0.5-0.2c-0.2-0.8-0.4-2.6-0.1-2.5c-0.4-1.9-0.4,1.6-0.4,2.3c-0.8-1.4-0.1-3.9-0.3-4
					l-0.3,0.2l0.1,0.4c-0.1,1.4,0,2.9-0.4,2.7c-0.3-0.7-0.4-2.1-0.5-2.3c0-0.2-0.1-0.4-0.2-0.1l-0.7-0.3l0.5,2.7
					c-0.1,1.3-0.6-0.1,0,3c-0.9-4.8-2.5-1.7-2.9-3.2c-0.2,2.1-0.6,2.1-1.1,1.8c0.2,0.6,0.6,3.8,0.1,3.5c-0.5-6.7-1-2.9-1.9-7.8
					c0.6,3.3-1.1,0.8-0.2,5.5c-0.4-0.6-0.3-2.6-0.7-4.2c-0.6,2.7-2-1.8-2.9-0.9c0.1,0.9,0.4,2.4,0.3,3.8l-1-4.7
					c-0.2,0.5,0.4,5.5-0.3,2.2c0.1,0.8,0.3,2,0.2,2.3c-1.2-2.3-2.2-1.4-3.1-0.9c-1,0.4-2,0.4-3.5-4.3c0.5,2,0.3,2.2,0.1,2.3
					c0.2,0.5,0.2,2.5,0.4,3.9l-1.2-3.9c0.2,3.9-0.9,0.2-0.6,4l0.2-0.7c0.1,4.5,1.5,9.8,2,15.4c-0.1-2.5,0.4-0.7,0.8,0.8
					c0.4,1.5,0.9,2.7,0.9-0.9c0.3,1.1,0.1,1.8,0.3,3.1c-0.1-2.4,0.1-2.9,0.5-2l0,0.6c1-0.8,1.6,1.4,2.9,2.7l-0.3-2.6
					c0.3,0.3,0.4,1.1,0.6,1.7c-0.1-4-0.7-0.1-0.9-4.5c0.9,5.3,1.8-0.2,2.6,5.7c0.4-0.1-0.4-3,0-3l0.3,1.6l-0.1-2.1
					c0.3,0.3,0.6,2.3,0.8,3.6c-0.1-0.1-0.1,0.4-0.2,0.6c0.5,1.8,0.8-0.9,1-0.3l-0.5-0.9c0.9-1.7,2.3,0,3-3.4l-0.2-1.1
					c0.6-2.3,0.7,1.1,1.5,0l0,0.3c0.1-1.2,0.2-1.8,0.5-1.7c-0.1,1.4,0.7,2.5,0.5,4c0.6-2.4,0.2-1.8,0.4-6.1l0.3,1.8
					c0-1.7,0-2.6,0.3-3.1c-0.2,1.6,0.5,2.7,0.4,4.8c1.3,3.7,0.9-4.2,1.9,1.4c-0.1-5-1-2.6-0.9-3.7c-0.4-1.6,0-3.7,0.3-3.3
					c0.3,0.1,1.1,6.2,1.8,5.9c-0.1,0,0,0.4-0.1,0.4c0.4,1.2,0.4-1.8,0.9,0.1c-0.1-2.9,0.4,0.1,0.1-3.6l-0.6,1c0.3-1.1,0.2-5.4,1-3.4
					c0,0.7-0.1,1.7-0.1,2.3c0.3,1,0.3-0.8,0.6,0.3c0.3,3.6-0.7,0.9-0.8,3.8c0.3,1.5,0.5-2.8,0.7,1.2c-0.2-5.1,0.8,0.4,0.9-3.5
					l0.2,2.2c0-0.4,0.1-1.4,0.2-1.4l0,2.8c0.2-2.5,0.9,1.9,1.2,0.5c-0.8,0.3-0.4-2.5-0.9-4c0.7-3,1.1,5.4,2.1,4.1
					c-0.1,0.3-0.7-1.1-0.5-2.1c0.2,0.4,0.6,1.1,0.8,2.2c0.7-0.6-0.3-2.1-0.1-3.4c0.5,2.4,0.2-1.1,0.5-2l0.2,2.1
					c0.9,1.1-0.2-4.4,0.7-2.9l0,2.9l0.3-0.8l0.2,2.3c0.2-1.8,0.4-1.4,0.9-0.9c-0.2-1.4-0.3-3.7,0-3.8c0.4,1.1,0.1,1.9,0.5,1.5
					c0,1.3,0,2.9-0.4,1.1c0,0.7,0,1.3,0.1,1.9c0.4,1.3,0.7,0.1,0.9,0.1c-0.1-0.1-0.2-0.1-0.2-0.4l0.5-2.9c0.2,0.7,0.2,1.3,0.1,1.9
					c0.1-0.3,0.1-1.2,0.3-1.4c0.1,1.6,0.3,3.2,0,4.1l0.5-2c0.1,0.7,0.5,1.8,0.5,2.4c0.5,0.8,0.6-3.3,1.3-2.2c0-0.3,0-0.6,0.1-0.9
					c0.5,0.2,1.1,1.9,1.5-0.3l0.6,2.6c0.4-0.7-0.8-3.2-0.1-4.4c0.4-1,0.4,2.2,0.7,2.9c0.1-1.4,0.3-4.2,1-2.2
					C302.1,269.6,301.9,269.2,301.8,269.5z M307.2,266.9c-0.1,0.4-0.2,1.5-0.4,0.5C306.8,265.6,307,266.5,307.2,266.9z M315.3,261.7
					c0,0.5-0.2,0.3-0.4-0.2C315,261.3,315.1,261.4,315.3,261.7z M338.6,253.8C338.6,253.8,338.6,253.8,338.6,253.8
					C338.3,253.5,338.4,253.6,338.6,253.8z M339.1,254c0-0.1,0-0.2,0-0.2c0,0.1-0.1,0.1-0.3,0.1C338.9,254,339,254.1,339.1,254z
					 M284.2,252.7l0.2,0.6C284.2,254,284.2,253.4,284.2,252.7z"/>
				<path class="st0" d="M314.5,263.7c-0.1-0.2-0.1-0.5-0.1-0.7C314.4,263.2,314.4,263.5,314.5,263.7z"/>
				<path class="st0" d="M298.4,271.4C298.4,271.4,298.4,271.4,298.4,271.4c0,0.1,0,0.2,0,0.3L298.4,271.4z"/>
				<path class="st0" d="M331.8,260.5c-0.1-0.1-0.2-0.2-0.2-0.4C331.6,260.3,331.7,260.5,331.8,260.5z"/>
				<path class="st0" d="M341.7,253.3l-0.3,0.1c0.2,0,0.2,0.1,0.3,0.2C341.7,253.5,341.6,253.3,341.7,253.3z"/>
				<path class="st0" d="M344.8,255.9c0-0.1,0.1,0,0.1-0.1l0-0.2C344.7,255.7,344.6,255.9,344.8,255.9z"/>
				<path class="st0" d="M342.2,254.9c0.1,0.4,0.3,0.2,0.5,0.2c0,0,0,0,0,0C342.6,254.5,342.4,254.7,342.2,254.9z"/>
				<path class="st0" d="M342.7,255c0.1,0,0.1,0,0.2,0C342.9,254.8,342.8,255,342.7,255z"/>
				<path class="st0" d="M339.7,253.8c0.1,0.1,0-0.6,0.1-0.4C339.9,252.8,339.2,254,339.7,253.8z"/>
				<polygon class="st0" points="342.5,256.1 342.4,255.7 342.3,256.1 				"/>
				<path class="st0" d="M340.7,255.9l0.4,0.1c0-0.1,0-0.1,0.1-0.2C340.9,255.9,340.6,255.8,340.7,255.9z"/>
				<path class="st0" d="M341.1,255.9c0.1,0,0.2,0,0.3-0.1C341.3,255.8,341.2,255.8,341.1,255.9z"/>
				<polygon class="st0" points="342,256.3 341.9,256.2 341.6,256.2 				"/>
				<path class="st0" d="M336.8,256.1l-0.4,0.2c0,0.2,0.1,0.4,0.2,0.3C336.7,256.4,336.8,256.3,336.8,256.1z"/>
				<path class="st0" d="M338.1,257.7c-0.1-0.1-0.1-0.2-0.2-0.4l0.1,0.8L338.1,257.7z"/>
				<path class="st0" d="M337,258.1c0,0.2-0.5,0.8,0,0.6C337,258.4,337.4,258.2,337,258.1z"/>
				<polygon class="st0" points="331,257.7 331.1,257.7 330.9,256 				"/>
				<path class="st0" d="M326.2,263.3c0.5,0.4,0-1.3,0.5-0.8c0.1-0.5-0.4-0.4-0.3-0.9C326.1,262.2,326,262,326.2,263.3z"/>
				<path class="st0" d="M326.4,261.7c0-0.1,0.1-0.2,0.1-0.3C326.4,261.5,326.4,261.6,326.4,261.7z"/>
				<polygon class="st0" points="265.3,249.2 264.9,247.9 265.3,249.9 				"/>
				<path class="st0" d="M265.2,253.6l-0.5-3.9l0.2,3.5C265,253.1,265.1,252.8,265.2,253.6z"/>
				<path class="st0" d="M308.4,271l0-0.5c-0.1-0.5-0.2-0.6-0.3-0.6L308.4,271z"/>
				<polygon class="st0" points="304.3,270.6 304.4,270.7 304,268.6 				"/>
				<path class="st0" d="M301.2,274.4c0.1,0,0.3-0.5,0.4-0.5C301.4,274.5,300.9,271.7,301.2,274.4z"/>
			</g>
		</g>
	</g>
</g>
<path class="st3" d="M141.9,69.4"/>
</svg>
